<svg width="192" height="192" fill="none" xmlns="http://www.w3.org/2000/svg"><g clip-path="url(#clip0_2_100)" fill-rule="evenodd" clip-rule="evenodd"><path d="M96.16 0h94.661v94.661c0 50.902-40.633 92.874-91.088 94.66 31.255-9.377 53.581-38.4 53.581-72.335V40.633H77.407c-37.953 0-69.656 28.13-75.46 64.744-.447-3.126-.447-6.698-.447-10.716C1.5 42.864 44.365 0 96.16 0z" fill="url(#paint0_linear_2_100)"/><path d="M57.314 78.14h55.814v55.813c0 30.81-25.005 55.814-55.814 55.814H1.5v-55.814c0-30.809 25.005-55.814 55.814-55.814z" fill="url(#paint1_linear_2_100)"/></g><defs><linearGradient id="paint0_linear_2_100" x1="1.5" y1="94.836" x2="191.263" y2="94.836" gradientUnits="userSpaceOnUse"><stop stop-color="#2E5E6D"/><stop offset="1" stop-color="#214250"/></linearGradient><linearGradient id="paint1_linear_2_100" x1="1.5" y1="133.959" x2="112.929" y2="133.959" gradientUnits="userSpaceOnUse"><stop stop-color="#518311"/><stop offset="1" stop-color="#79BF1B"/></linearGradient><clipPath id="clip0_2_100"><path fill="#fff" d="M0 0h192v192H0z"/></clipPath></defs></svg>