<svg width="512" height="512" fill="none" xmlns="http://www.w3.org/2000/svg"><g clip-path="url(#clip0_2_98)" fill-rule="evenodd" clip-rule="evenodd"><path d="M256.428 0h252.428v252.428c0 135.739-108.354 247.665-242.903 252.428 83.349-25.005 142.884-102.4 142.884-192.893v-203.61H206.419c-101.21 0-185.75 75.014-201.228 172.652C4 272.67 4 263.144 4 252.428 4 114.307 118.307 0 256.428 0z" fill="url(#paint0_linear_2_98)"/><path d="M152.837 208.372h148.837v148.837c0 82.158-66.679 148.838-148.837 148.838H4V357.209c0-82.158 66.68-148.837 148.837-148.837z" fill="url(#paint1_linear_2_98)"/></g><defs><linearGradient id="paint0_linear_2_98" x1="4" y1="252.897" x2="510.035" y2="252.897" gradientUnits="userSpaceOnUse"><stop stop-color="#2E5E6D"/><stop offset="1" stop-color="#214250"/></linearGradient><linearGradient id="paint1_linear_2_98" x1="4" y1="357.224" x2="301.143" y2="357.224" gradientUnits="userSpaceOnUse"><stop stop-color="#518311"/><stop offset="1" stop-color="#79BF1B"/></linearGradient><clipPath id="clip0_2_98"><path fill="#fff" d="M0 0h512v512H0z"/></clipPath></defs></svg>