<svg width="152" height="152" fill="none" xmlns="http://www.w3.org/2000/svg"><g clip-path="url(#clip0_2_116)" fill-rule="evenodd" clip-rule="evenodd"><path d="M76.127 0h74.94v74.939c0 40.298-32.168 73.526-72.112 74.94 24.744-7.423 42.419-30.4 42.419-57.265V32.167H61.281c-30.047 0-55.145 22.27-59.74 51.256-.353-2.474-.353-5.302-.353-8.484C1.188 33.935 35.121 0 76.126 0z" fill="url(#paint0_linear_2_116)"/><path d="M45.373 61.86H89.56v44.187c0 24.39-19.796 44.186-44.187 44.186H1.188v-44.186c0-24.391 19.795-44.186 44.185-44.186z" fill="url(#paint1_linear_2_116)"/></g><defs><linearGradient id="paint0_linear_2_116" x1="1.188" y1="75.079" x2="151.417" y2="75.079" gradientUnits="userSpaceOnUse"><stop stop-color="#2E5E6D"/><stop offset="1" stop-color="#214250"/></linearGradient><linearGradient id="paint1_linear_2_116" x1="1.188" y1="106.051" x2="89.402" y2="106.051" gradientUnits="userSpaceOnUse"><stop stop-color="#518311"/><stop offset="1" stop-color="#79BF1B"/></linearGradient><clipPath id="clip0_2_116"><path fill="#fff" d="M0 0h152v152H0z"/></clipPath></defs></svg>