<svg width="114" height="114" fill="none" xmlns="http://www.w3.org/2000/svg"><g clip-path="url(#clip0_2_122)" fill-rule="evenodd" clip-rule="evenodd"><path d="M57.095 0H113.3v56.205c0 30.223-24.126 55.144-54.084 56.204 18.558-5.567 31.814-22.8 31.814-42.949V24.125H45.96c-22.535 0-41.358 16.703-44.804 38.442C.89 60.712.89 58.591.89 56.205.89 25.45 26.34 0 57.095 0z" fill="url(#paint0_linear_2_122)"/><path d="M34.03 46.395h33.14v33.14c0 18.293-14.847 33.139-33.14 33.139H.89v-33.14c0-18.292 14.847-33.139 33.14-33.139z" fill="url(#paint1_linear_2_122)"/></g><defs><linearGradient id="paint0_linear_2_122" x1=".891" y1="56.309" x2="113.562" y2="56.309" gradientUnits="userSpaceOnUse"><stop stop-color="#2E5E6D"/><stop offset="1" stop-color="#214250"/></linearGradient><linearGradient id="paint1_linear_2_122" x1=".891" y1="79.538" x2="67.052" y2="79.538" gradientUnits="userSpaceOnUse"><stop stop-color="#518311"/><stop offset="1" stop-color="#79BF1B"/></linearGradient><clipPath id="clip0_2_122"><path fill="#fff" d="M0 0h114v114H0z"/></clipPath></defs></svg>