<svg width="144" height="144" fill="none" xmlns="http://www.w3.org/2000/svg"><g clip-path="url(#clip0_2_118)" fill-rule="evenodd" clip-rule="evenodd"><path d="M72.12 0h70.996v70.995c0 38.177-30.475 69.656-68.317 70.996 23.442-7.033 40.186-28.8 40.186-54.252V30.476h-56.93c-28.465 0-52.242 21.097-56.595 48.558-.335-2.345-.335-5.024-.335-8.038C1.125 32.15 33.274 0 72.12 0z" fill="url(#paint0_linear_2_118)"/><path d="M42.986 58.605h41.86v41.86c0 23.107-18.754 41.861-41.86 41.861H1.125v-41.861c0-23.107 18.753-41.86 41.86-41.86z" fill="url(#paint1_linear_2_118)"/></g><defs><linearGradient id="paint0_linear_2_118" x1="1.125" y1="71.127" x2="143.447" y2="71.127" gradientUnits="userSpaceOnUse"><stop stop-color="#2E5E6D"/><stop offset="1" stop-color="#214250"/></linearGradient><linearGradient id="paint1_linear_2_118" x1="1.125" y1="100.469" x2="84.697" y2="100.469" gradientUnits="userSpaceOnUse"><stop stop-color="#518311"/><stop offset="1" stop-color="#79BF1B"/></linearGradient><clipPath id="clip0_2_118"><path fill="#fff" d="M0 0h144v144H0z"/></clipPath></defs></svg>