<svg width="76" height="76" fill="none" xmlns="http://www.w3.org/2000/svg"><g clip-path="url(#clip0_2_124)"><g clip-path="url(#clip1_2_124)" fill-rule="evenodd" clip-rule="evenodd"><path d="M38.063 0h37.47v37.47c0 20.149-16.083 36.763-36.056 37.47 12.373-3.712 21.21-15.2 21.21-28.633V16.084H30.64c-15.023 0-27.572 11.135-29.87 25.628C.594 40.474.594 39.06.594 37.47.594 16.967 17.56 0 38.064 0z" fill="url(#paint0_linear_2_124)"/><path d="M22.687 30.93H44.78v22.093c0 12.196-9.898 22.093-22.093 22.093H.594V53.023c0-12.195 9.897-22.093 22.093-22.093z" fill="url(#paint1_linear_2_124)"/></g></g><defs><linearGradient id="paint0_linear_2_124" x1=".594" y1="37.539" x2="75.708" y2="37.539" gradientUnits="userSpaceOnUse"><stop stop-color="#2E5E6D"/><stop offset="1" stop-color="#214250"/></linearGradient><linearGradient id="paint1_linear_2_124" x1=".594" y1="53.025" x2="44.701" y2="53.025" gradientUnits="userSpaceOnUse"><stop stop-color="#518311"/><stop offset="1" stop-color="#79BF1B"/></linearGradient><clipPath id="clip0_2_124"><path fill="#fff" d="M0 0h76v76H0z"/></clipPath><clipPath id="clip1_2_124"><path fill="#fff" d="M0 0h76v76H0z"/></clipPath></defs></svg>