<svg width="167" height="167" fill="none" xmlns="http://www.w3.org/2000/svg"><g clip-path="url(#clip0_2_114)" fill-rule="evenodd" clip-rule="evenodd"><path d="M83.64 0h82.334v82.335c0 44.274-35.341 80.781-79.227 82.335 27.186-8.156 46.604-33.4 46.604-62.917V35.342H67.328c-33.012 0-60.586 24.467-65.635 56.314-.388-2.719-.388-5.826-.388-9.321C1.305 37.284 38.588 0 83.64 0z" fill="url(#paint0_linear_2_114)"/><path d="M49.851 67.965h48.547v48.547c0 26.797-21.75 48.546-48.547 48.546H1.305v-48.546c0-26.798 21.748-48.547 48.546-48.547z" fill="url(#paint1_linear_2_114)"/></g><defs><linearGradient id="paint0_linear_2_114" x1="1.305" y1="82.488" x2="166.359" y2="82.488" gradientUnits="userSpaceOnUse"><stop stop-color="#2E5E6D"/><stop offset="1" stop-color="#214250"/></linearGradient><linearGradient id="paint1_linear_2_114" x1="1.305" y1="116.516" x2="98.225" y2="116.516" gradientUnits="userSpaceOnUse"><stop stop-color="#518311"/><stop offset="1" stop-color="#79BF1B"/></linearGradient><clipPath id="clip0_2_114"><path fill="#fff" d="M0 0h167v167H0z"/></clipPath></defs></svg>