<svg width="60" height="60" fill="none" xmlns="http://www.w3.org/2000/svg"><g clip-path="url(#clip0_2_128)"><g clip-path="url(#clip1_2_128)" fill-rule="evenodd" clip-rule="evenodd"><path d="M30.05 0h29.582v29.582c0 15.906-12.698 29.023-28.466 29.58 9.768-2.93 16.745-12 16.745-22.604v-23.86H24.19c-11.86 0-21.768 8.79-23.582 20.232-.14-.977-.14-2.093-.14-3.349C.469 13.395 13.865 0 30.05 0z" fill="url(#paint0_linear_2_128)"/><path d="M17.91 24.419h17.442V41.86c0 9.628-7.813 17.442-17.441 17.442H.469V41.86c0-9.627 7.814-17.441 17.442-17.441z" fill="url(#paint1_linear_2_128)"/></g></g><defs><linearGradient id="paint0_linear_2_128" x1=".469" y1="29.636" x2="59.77" y2="29.636" gradientUnits="userSpaceOnUse"><stop stop-color="#2E5E6D"/><stop offset="1" stop-color="#214250"/></linearGradient><linearGradient id="paint1_linear_2_128" x1=".469" y1="41.862" x2="35.29" y2="41.862" gradientUnits="userSpaceOnUse"><stop stop-color="#518311"/><stop offset="1" stop-color="#79BF1B"/></linearGradient><clipPath id="clip0_2_128"><path fill="#fff" d="M0 0h60v60H0z"/></clipPath><clipPath id="clip1_2_128"><path fill="#fff" d="M0 0h60v60H0z"/></clipPath></defs></svg>