<svg width="180" height="180" fill="none" xmlns="http://www.w3.org/2000/svg"><g clip-path="url(#clip0_2_112)" fill-rule="evenodd" clip-rule="evenodd"><path d="M90.15 0h88.745v88.744c0 47.721-38.093 87.07-85.396 88.744 29.303-8.79 50.233-36 50.233-67.814V38.093H72.569c-35.581 0-65.302 26.372-70.744 60.698-.419-2.93-.419-6.28-.419-10.047C1.406 40.186 41.592 0 90.15 0z" fill="url(#paint0_linear_2_112)"/><path d="M53.732 73.256h52.325v52.325c0 28.884-23.441 52.326-52.325 52.326H1.406v-52.326c0-28.883 23.442-52.325 52.326-52.325z" fill="url(#paint1_linear_2_112)"/></g><defs><linearGradient id="paint0_linear_2_112" x1="1.406" y1="88.909" x2="179.309" y2="88.909" gradientUnits="userSpaceOnUse"><stop stop-color="#2E5E6D"/><stop offset="1" stop-color="#214250"/></linearGradient><linearGradient id="paint1_linear_2_112" x1="1.406" y1="125.586" x2="105.871" y2="125.586" gradientUnits="userSpaceOnUse"><stop stop-color="#518311"/><stop offset="1" stop-color="#79BF1B"/></linearGradient><clipPath id="clip0_2_112"><path fill="#fff" d="M0 0h180v180H0z"/></clipPath></defs></svg>