<svg width="57" height="57" fill="none" xmlns="http://www.w3.org/2000/svg"><g clip-path="url(#clip0_2_130)"><g clip-path="url(#clip1_2_130)" fill-rule="evenodd" clip-rule="evenodd"><path d="M28.548 0H56.65v28.102c0 15.112-12.063 27.572-27.042 28.103 9.28-2.784 15.907-11.4 15.907-21.475V12.063H22.98c-11.267 0-20.679 8.351-22.402 19.22-.133-.927-.133-1.988-.133-3.18C.445 12.725 13.171 0 28.548 0z" fill="url(#paint0_linear_2_130)"/><path d="M17.015 23.198h16.57v16.57c0 9.146-7.423 16.57-16.57 16.57H.445v-16.57c0-9.147 7.424-16.57 16.57-16.57z" fill="url(#paint1_linear_2_130)"/></g></g><defs><linearGradient id="paint0_linear_2_130" x1=".445" y1="28.155" x2="56.781" y2="28.155" gradientUnits="userSpaceOnUse"><stop stop-color="#2E5E6D"/><stop offset="1" stop-color="#214250"/></linearGradient><linearGradient id="paint1_linear_2_130" x1=".445" y1="39.769" x2="33.526" y2="39.769" gradientUnits="userSpaceOnUse"><stop stop-color="#518311"/><stop offset="1" stop-color="#79BF1B"/></linearGradient><clipPath id="clip0_2_130"><path fill="#fff" d="M0 0h57v57H0z"/></clipPath><clipPath id="clip1_2_130"><path fill="#fff" d="M0 0h57v57H0z"/></clipPath></defs></svg>