<svg width="72" height="72" fill="none" xmlns="http://www.w3.org/2000/svg"><g clip-path="url(#clip0_2_126)"><g clip-path="url(#clip1_2_126)" fill-rule="evenodd" clip-rule="evenodd"><path d="M36.06 0h35.498v35.498c0 19.088-15.237 34.828-34.158 35.497 11.72-3.516 20.093-14.4 20.093-27.125V15.237H29.028c-14.233 0-26.121 10.549-28.298 24.28-.167-1.173-.167-2.512-.167-4.02C.563 16.075 16.637 0 36.06 0z" fill="url(#paint0_linear_2_126)"/><path d="M21.493 29.302h20.93v20.93c0 11.554-9.377 20.93-20.93 20.93H.563v-20.93c0-11.553 9.376-20.93 20.93-20.93z" fill="url(#paint1_linear_2_126)"/></g></g><defs><linearGradient id="paint0_linear_2_126" x1=".563" y1="35.564" x2="71.724" y2="35.564" gradientUnits="userSpaceOnUse"><stop stop-color="#2E5E6D"/><stop offset="1" stop-color="#214250"/></linearGradient><linearGradient id="paint1_linear_2_126" x1=".563" y1="50.234" x2="42.348" y2="50.234" gradientUnits="userSpaceOnUse"><stop stop-color="#518311"/><stop offset="1" stop-color="#79BF1B"/></linearGradient><clipPath id="clip0_2_126"><path fill="#fff" d="M0 0h72v72H0z"/></clipPath><clipPath id="clip1_2_126"><path fill="#fff" d="M0 0h72v72H0z"/></clipPath></defs></svg>