<svg width="120" height="120" fill="none" xmlns="http://www.w3.org/2000/svg"><g clip-path="url(#clip0_2_120)" fill-rule="evenodd" clip-rule="evenodd"><path d="M60.1 0h59.163v59.163c0 31.814-25.395 58.046-56.93 59.163 19.535-5.861 33.488-24 33.488-45.21V25.395H48.38c-23.72 0-43.535 17.582-47.162 40.466-.28-1.954-.28-4.187-.28-6.698C.938 26.79 27.729 0 60.1 0z" fill="url(#paint0_linear_2_120)"/><path d="M35.821 48.837h34.884v34.884c0 19.256-15.628 34.884-34.884 34.884H.938V83.721c0-19.256 15.627-34.884 34.883-34.884z" fill="url(#paint1_linear_2_120)"/></g><defs><linearGradient id="paint0_linear_2_120" x1=".938" y1="59.273" x2="119.539" y2="59.273" gradientUnits="userSpaceOnUse"><stop stop-color="#2E5E6D"/><stop offset="1" stop-color="#214250"/></linearGradient><linearGradient id="paint1_linear_2_120" x1=".938" y1="83.724" x2="70.581" y2="83.724" gradientUnits="userSpaceOnUse"><stop stop-color="#518311"/><stop offset="1" stop-color="#79BF1B"/></linearGradient><clipPath id="clip0_2_120"><path fill="#fff" d="M0 0h120v120H0z"/></clipPath></defs></svg>