<svg width="32" height="32" fill="none" xmlns="http://www.w3.org/2000/svg"><g clip-path="url(#clip0_2_138)"><g clip-path="url(#clip1_2_138)" fill-rule="evenodd" clip-rule="evenodd"><path d="M16.027 0h15.776v15.777c0 8.484-6.772 15.479-15.18 15.777 5.208-1.563 8.93-6.4 8.93-12.056V6.773H12.9c-6.325 0-11.61 4.688-12.577 10.79C.25 17.042.25 16.447.25 15.777.25 7.144 7.394 0 16.027 0z" fill="url(#paint0_linear_2_138)"/><path d="M9.552 13.023h9.303v9.303c0 5.134-4.168 9.302-9.303 9.302H.25v-9.302c0-5.135 4.167-9.303 9.302-9.303z" fill="url(#paint1_linear_2_138)"/></g></g><defs><linearGradient id="paint0_linear_2_138" x1=".25" y1="15.806" x2="31.877" y2="15.806" gradientUnits="userSpaceOnUse"><stop stop-color="#2E5E6D"/><stop offset="1" stop-color="#214250"/></linearGradient><linearGradient id="paint1_linear_2_138" x1=".25" y1="22.326" x2="18.822" y2="22.326" gradientUnits="userSpaceOnUse"><stop stop-color="#518311"/><stop offset="1" stop-color="#79BF1B"/></linearGradient><clipPath id="clip0_2_138"><path fill="#fff" d="M0 0h32v32H0z"/></clipPath><clipPath id="clip1_2_138"><path fill="#fff" d="M0 0h32v32H0z"/></clipPath></defs></svg>