<svg width="196" height="196" fill="none" xmlns="http://www.w3.org/2000/svg"><g clip-path="url(#clip0_2_132)" fill-rule="evenodd" clip-rule="evenodd"><path d="M98.164 0h96.632v96.633c0 51.962-41.479 94.809-92.986 96.632 31.907-9.572 54.698-39.2 54.698-73.842V41.479H79.02c-38.745 0-71.107 28.716-77.033 66.093-.456-3.191-.456-6.837-.456-10.94C1.531 43.759 45.29 0 98.164 0z" fill="url(#paint0_linear_2_132)"/><path d="M58.508 79.767h56.977v56.977c0 31.451-25.526 56.977-56.977 56.977H1.531v-56.977c0-31.451 25.526-56.977 56.977-56.977z" fill="url(#paint1_linear_2_132)"/></g><defs><linearGradient id="paint0_linear_2_132" x1="1.531" y1="96.812" x2="195.248" y2="96.812" gradientUnits="userSpaceOnUse"><stop stop-color="#2E5E6D"/><stop offset="1" stop-color="#214250"/></linearGradient><linearGradient id="paint1_linear_2_132" x1="1.531" y1="136.75" x2="115.281" y2="136.75" gradientUnits="userSpaceOnUse"><stop stop-color="#518311"/><stop offset="1" stop-color="#79BF1B"/></linearGradient><clipPath id="clip0_2_132"><path fill="#fff" d="M0 0h196v196H0z"/></clipPath></defs></svg>