<svg width="16" height="16" fill="none" xmlns="http://www.w3.org/2000/svg"><g clip-path="url(#clip0_2_140)"><g clip-path="url(#clip1_2_140)" fill-rule="evenodd" clip-rule="evenodd"><path d="M8.013 0h7.889v7.888c0 4.242-3.386 7.74-7.59 7.889a6.285 6.285 0 004.464-6.028V3.386H6.451C3.288 3.386.646 5.73.162 8.781c-.037-.26-.037-.558-.037-.893C.125 3.572 3.697 0 8.013 0z" fill="url(#paint0_linear_2_140)"/><path d="M4.776 6.512h4.651v4.65a4.653 4.653 0 01-4.65 4.652H.124v-4.651a4.653 4.653 0 014.651-4.651z" fill="url(#paint1_linear_2_140)"/></g></g><defs><linearGradient id="paint0_linear_2_140" x1=".125" y1="7.903" x2="15.939" y2="7.903" gradientUnits="userSpaceOnUse"><stop stop-color="#2E5E6D"/><stop offset="1" stop-color="#214250"/></linearGradient><linearGradient id="paint1_linear_2_140" x1=".125" y1="11.163" x2="9.411" y2="11.163" gradientUnits="userSpaceOnUse"><stop stop-color="#518311"/><stop offset="1" stop-color="#79BF1B"/></linearGradient><clipPath id="clip0_2_140"><path fill="#fff" d="M0 0h16v16H0z"/></clipPath><clipPath id="clip1_2_140"><path fill="#fff" d="M0 0h16v16H0z"/></clipPath></defs></svg>