<svg width="128" height="128" fill="none" xmlns="http://www.w3.org/2000/svg"><g clip-path="url(#clip0_2_134)" fill-rule="evenodd" clip-rule="evenodd"><path d="M64.107 0h63.107v63.107c0 33.935-27.088 61.916-60.726 63.107 20.838-6.251 35.721-25.6 35.721-48.223V27.088H51.605c-25.303 0-46.438 18.754-50.307 43.163C1 68.167 1 65.786 1 63.107 1 28.577 29.577 0 64.107 0z" fill="url(#paint0_linear_2_134)"/><path d="M38.21 52.093h37.209v37.21c0 20.539-16.67 37.209-37.21 37.209H1v-37.21c0-20.54 16.67-37.209 37.21-37.209z" fill="url(#paint1_linear_2_134)"/></g><defs><linearGradient id="paint0_linear_2_134" x1="1" y1="63.224" x2="127.509" y2="63.224" gradientUnits="userSpaceOnUse"><stop stop-color="#2E5E6D"/><stop offset="1" stop-color="#214250"/></linearGradient><linearGradient id="paint1_linear_2_134" x1="1" y1="89.306" x2="75.286" y2="89.306" gradientUnits="userSpaceOnUse"><stop stop-color="#518311"/><stop offset="1" stop-color="#79BF1B"/></linearGradient><clipPath id="clip0_2_134"><path fill="#fff" d="M0 0h128v128H0z"/></clipPath></defs></svg>