<svg width="96" height="96" fill="none" xmlns="http://www.w3.org/2000/svg"><g clip-path="url(#clip0_2_136)" fill-rule="evenodd" clip-rule="evenodd"><path d="M48.08 0h47.33v47.33c0 25.451-20.316 46.437-45.544 47.33 15.628-4.688 26.791-19.2 26.791-36.167V20.316H38.704c-18.977 0-34.828 14.065-37.73 32.372C.75 51.126.75 49.34.75 47.33.75 21.433 22.183 0 48.08 0z" fill="url(#paint0_linear_2_136)"/><path d="M28.657 39.07h27.907v27.907c0 15.404-12.502 27.907-27.907 27.907H.75V66.977c0-15.405 12.502-27.907 27.907-27.907z" fill="url(#paint1_linear_2_136)"/></g><defs><linearGradient id="paint0_linear_2_136" x1=".75" y1="47.418" x2="95.632" y2="47.418" gradientUnits="userSpaceOnUse"><stop stop-color="#2E5E6D"/><stop offset="1" stop-color="#214250"/></linearGradient><linearGradient id="paint1_linear_2_136" x1=".75" y1="66.98" x2="56.464" y2="66.98" gradientUnits="userSpaceOnUse"><stop stop-color="#518311"/><stop offset="1" stop-color="#79BF1B"/></linearGradient><clipPath id="clip0_2_136"><path fill="#fff" d="M0 0h96v96H0z"/></clipPath></defs></svg>