<svg width="150" height="150" fill="none" xmlns="http://www.w3.org/2000/svg"><g clip-path="url(#clip0_2_106)" fill-rule="evenodd" clip-rule="evenodd"><path d="M75.125 0h73.954v73.954c0 39.767-31.744 72.558-71.163 73.953 24.419-7.326 41.861-30 41.861-56.512V31.744H60.474c-29.651 0-54.418 21.977-58.953 50.582-.35-2.442-.35-5.233-.35-8.372C1.172 33.488 34.662 0 75.126 0z" fill="url(#paint0_linear_2_106)"/><path d="M44.776 61.047h43.605v43.604c0 24.07-19.535 43.605-43.605 43.605H1.172v-43.605c0-24.07 19.535-43.604 43.605-43.604z" fill="url(#paint1_linear_2_106)"/></g><defs><linearGradient id="paint0_linear_2_106" x1="1.172" y1="74.091" x2="149.424" y2="74.091" gradientUnits="userSpaceOnUse"><stop stop-color="#2E5E6D"/><stop offset="1" stop-color="#214250"/></linearGradient><linearGradient id="paint1_linear_2_106" x1="1.172" y1="104.655" x2="88.226" y2="104.655" gradientUnits="userSpaceOnUse"><stop stop-color="#518311"/><stop offset="1" stop-color="#79BF1B"/></linearGradient><clipPath id="clip0_2_106"><path fill="#fff" d="M0 0h150v150H0z"/></clipPath></defs></svg>