<svg width="310" height="310" fill="none" xmlns="http://www.w3.org/2000/svg"><g clip-path="url(#clip0_2_102)" fill-rule="evenodd" clip-rule="evenodd"><path d="M155.259 0h152.837v152.837c0 82.186-65.604 149.954-147.069 152.837 50.465-15.139 86.511-62 86.511-116.79V65.605H124.98c-61.28 0-112.465 45.418-121.837 104.535-.721-5.047-.721-10.814-.721-17.303C2.422 69.209 71.632 0 155.259 0z" fill="url(#paint0_linear_2_102)"/><path d="M92.538 126.163h90.116v90.116c0 49.744-40.372 90.116-90.116 90.116H2.422v-90.116c0-49.744 40.372-90.116 90.116-90.116z" fill="url(#paint1_linear_2_102)"/></g><defs><linearGradient id="paint0_linear_2_102" x1="2.422" y1="153.121" x2="308.81" y2="153.121" gradientUnits="userSpaceOnUse"><stop stop-color="#2E5E6D"/><stop offset="1" stop-color="#214250"/></linearGradient><linearGradient id="paint1_linear_2_102" x1="2.422" y1="216.288" x2="182.333" y2="216.288" gradientUnits="userSpaceOnUse"><stop stop-color="#518311"/><stop offset="1" stop-color="#79BF1B"/></linearGradient><clipPath id="clip0_2_102"><path fill="#fff" d="M0 0h310v310H0z"/></clipPath></defs></svg>