<svg width="70" height="70" fill="none" xmlns="http://www.w3.org/2000/svg"><g clip-path="url(#clip0_2_110)"><g clip-path="url(#clip1_2_110)" fill-rule="evenodd" clip-rule="evenodd"><path d="M35.059 0H69.57v34.512c0 18.558-14.814 33.86-33.21 34.511 11.396-3.418 19.536-14 19.536-26.372V14.814H28.22C14.384 14.814 2.826 25.07.71 38.419c-.163-1.14-.163-2.442-.163-3.907C.547 15.628 16.175 0 35.059 0z" fill="url(#paint0_linear_2_110)"/><path d="M20.896 28.488h20.349v20.35c0 11.232-9.117 20.348-20.35 20.348H.548V48.837c0-11.232 9.116-20.349 20.349-20.349z" fill="url(#paint1_linear_2_110)"/></g></g><defs><linearGradient id="paint0_linear_2_110" x1=".547" y1="34.576" x2="69.731" y2="34.576" gradientUnits="userSpaceOnUse"><stop stop-color="#2E5E6D"/><stop offset="1" stop-color="#214250"/></linearGradient><linearGradient id="paint1_linear_2_110" x1=".547" y1="48.839" x2="41.172" y2="48.839" gradientUnits="userSpaceOnUse"><stop stop-color="#518311"/><stop offset="1" stop-color="#79BF1B"/></linearGradient><clipPath id="clip0_2_110"><path fill="#fff" d="M0 0h70v70H0z"/></clipPath><clipPath id="clip1_2_110"><path fill="#fff" d="M0 0h70v70H0z"/></clipPath></defs></svg>