<svg width="310" height="150" fill="none" xmlns="http://www.w3.org/2000/svg"><path fill-rule="evenodd" clip-rule="evenodd" d="M155.079 28h46.344v46.344c0 24.921-19.893 45.47-44.596 46.344 15.303-4.59 26.233-18.8 26.233-35.414V47.893h-37.163c-18.581 0-34.102 13.772-36.944 31.698-.219-1.53-.219-3.28-.219-5.247C108.734 48.986 129.72 28 155.079 28z" fill="url(#paint0_linear_2_104)"/><path fill-rule="evenodd" clip-rule="evenodd" d="M136.06 66.256h27.326V93.58c0 15.084-12.242 27.326-27.326 27.326h-27.326V93.581c0-15.083 12.242-27.325 27.326-27.325z" fill="url(#paint1_linear_2_104)"/><defs><linearGradient id="paint0_linear_2_104" x1="108.734" y1="74.43" x2="201.639" y2="74.43" gradientUnits="userSpaceOnUse"><stop stop-color="#2E5E6D"/><stop offset="1" stop-color="#214250"/></linearGradient><linearGradient id="paint1_linear_2_104" x1="108.734" y1="93.584" x2="163.288" y2="93.584" gradientUnits="userSpaceOnUse"><stop stop-color="#518311"/><stop offset="1" stop-color="#79BF1B"/></linearGradient></defs></svg>