<svg width="92" height="56" viewBox="0 0 92 56" fill="none" xmlns="http://www.w3.org/2000/svg">
<path d="M57.1521 52.5685V46.1978H54.799V56H56.7688L62.4307 49.5838V56H64.783V46.1978H62.7049L57.1521 52.5685ZM75.3593 46.1978L69.8065 52.5685V46.1978H67.4542V56H69.4323L75.0859 49.5838V56H77.4382V46.1978H75.3593ZM49.7748 50.011H44.6234V46.1978H42.2703V56H44.6234V52.1679H49.7748V56H52.1271V46.1978H49.7748V50.011ZM21.1541 46.1978L15.5195 56H18.3005L22.0114 49.5285L25.7497 56H28.6586L23.0233 46.1978H21.1541ZM31.9682 52.514V46.1978H29.6159V56H31.5948L37.2567 49.6384V56H39.609V46.1978H37.6308L31.9682 52.514Z" fill="black"/>
<path d="M18.0762 40.7472H23.3927L24.6143 38.5903H18.077L18.0762 40.7472ZM18.0762 34.7581V36.915H25.5814L26.8303 34.7581H18.0762ZM31.909 30.9449L26.2744 40.7472H29.0463L32.7572 34.2757L36.4955 40.7472H39.4135L33.7789 30.9449H31.909ZM14.9779 38.5895L9.34331 28.7789H7.41966L1.78429 38.5895H0.371094V43.6228H2.61358V40.7464H14.1479V43.6228H16.3911V38.5895H14.9779ZM4.59251 38.5895L8.30348 32.1097L12.0417 38.5895H4.59251ZM91.8768 30.9449H80.9264V33.1018H90.6181L91.8768 30.9449ZM29.0183 30.9449H18.077V33.1018H27.7694L29.0183 30.9449ZM71.5073 34.459H67.9334V30.9366H65.5811V40.7472H71.4892C73.0849 40.7472 74.7442 39.8649 74.7442 37.5527C74.7351 34.5135 72.6017 34.459 71.5073 34.459ZM71.371 38.6728H67.9243V36.4887H71.371C71.7716 36.4887 72.3828 36.5977 72.3828 37.5807C72.3828 38.4903 71.8814 38.6728 71.371 38.6728ZM78.2643 30.9449H75.9393V40.7563H78.2643V30.9449ZM45.3405 30.7079C41.4099 30.7079 39.5506 33.1109 39.5506 35.7957C39.5506 38.5986 41.3644 40.8827 45.3405 40.8827C47.0725 40.8827 51.0841 40.0822 51.0841 35.7957C51.0841 32.9928 49.2885 30.7079 45.3405 30.7079ZM45.3132 38.7258C43.0427 38.7258 42.0854 37.4247 42.0854 35.823C42.0854 34.0659 43.179 32.892 45.3132 32.892C47.72 32.892 48.5402 34.0659 48.5402 35.823C48.5402 37.9253 46.9634 38.7258 45.3132 38.7258ZM80.9264 40.7472H86.2421L87.4728 38.5903H80.9264V40.7472ZM80.9264 34.7581V36.915H88.4301L89.688 34.7581H80.9264ZM61.3506 34.9679C61.9701 34.7036 62.4995 34.2765 62.4995 33.2109C62.4995 31.1812 60.794 30.9449 59.5906 30.9449H53.2357V40.7563H59.7004C62.6631 40.7563 63.2743 39.1272 63.2743 37.6345C63.2834 35.9509 62.3261 35.2587 61.3506 34.9679ZM55.5608 33.02H59.3263C59.8912 33.02 60.1283 33.3116 60.1283 33.8758C60.1283 34.4582 59.7549 34.7581 59.3263 34.7581H55.5608V33.02ZM59.7004 38.6721H55.5608V36.5697H59.7004C60.3653 36.5697 60.8493 36.7333 60.8493 37.6072C60.8493 38.2987 60.5569 38.6721 59.7004 38.6721Z" fill="black"/>
<path d="M34.6042 19.6583L47.1594 22.0689L48.1349 20.3853L36.9747 15.5633L34.6042 19.6583ZM40.4206 9.61065L50.1865 16.8463L51.162 15.162L42.7918 5.51495L40.4214 9.61065H40.4206ZM37.5033 14.653L48.6635 19.4765L49.6579 17.7558L39.892 10.521L37.5033 14.653ZM45.9833 0L43.3477 4.55919L51.7186 14.2077L52.9591 12.069L45.9833 0ZM31.4219 25.1642H45.3721L46.6119 23.0254L34.0574 20.6148L31.4219 25.1642ZM53.5597 19.5311L56.8238 25.1642H60.5348L53.5597 13.1058L46.5846 25.1642H50.2956L53.5597 19.5311Z" fill="#FCAF17"/>
</svg>
