<svg width="52" height="50" viewBox="0 0 52 50" fill="none" xmlns="http://www.w3.org/2000/svg">
<g clip-path="url(#clip0_194_1111)">
<path d="M47.3587 0H4.69134C2.44556 0 0.625 1.78486 0.625 3.9866V45.8174C0.625 48.0191 2.44556 49.804 4.69134 49.804H47.3587C49.6045 49.804 51.425 48.0191 51.425 45.8174V3.9866C51.425 1.78486 49.6045 0 47.3587 0Z" fill="#0C54A0"/>
<path d="M47.8846 24.9022C47.8846 36.7386 38.0974 46.3337 26.0242 46.3337C13.9512 46.3337 4.16406 36.7386 4.16406 24.9022C4.16406 13.0658 13.9512 3.47052 26.0242 3.47052C38.0974 3.47052 47.8846 13.0658 47.8846 24.9022Z" fill="#FFF01E"/>
<path d="M24.3218 21.1046H19.7844L14.4948 26.4133V15.6373H10.4336V34.1061H14.4948V28.2812L19.5836 34.1061H24.723L18.4305 26.9784L24.3218 21.1046Z" fill="#0C54A0"/>
<path d="M27.4304 19.9C26.8118 19.9 26.2855 19.6876 25.8511 19.2613C25.4161 18.8356 25.1992 18.3192 25.1992 17.713C25.1992 17.1068 25.4162 16.5909 25.8511 16.1645C26.2855 15.7389 26.8118 15.5256 27.4304 15.5256C28.0485 15.5256 28.5748 15.7389 29.0097 16.1645C29.4442 16.5909 29.6613 17.1068 29.6613 17.713C29.6613 18.3192 29.4442 18.8355 29.0097 19.2613C28.5748 19.6876 28.0485 19.9 27.4304 19.9Z" fill="#F52D0E"/>
<path d="M29.4597 34.1061H25.3984V21.1047H29.4597V34.1061Z" fill="#0C54A0"/>
<path d="M41.6178 24.4225V21.1046H37.9076V15.6373H33.8464V21.1046H31.1641V24.4225H33.8464V30.1493C33.8464 31.5094 34.2514 32.5376 35.0623 33.2337C35.8729 33.9304 37.0718 34.2782 38.6597 34.2782C39.0438 34.2782 39.5202 34.2414 40.0888 34.1677C40.6567 34.0939 41.1248 33.9996 41.4926 33.8849V30.6653C41.1579 30.7638 40.8489 30.8333 40.565 30.8742C40.2806 30.9153 39.9798 30.9356 39.6625 30.9356C39.0108 30.9356 38.5554 30.8171 38.2962 30.5792C38.0369 30.3419 37.9076 29.9364 37.9076 29.3627V24.4225H41.6178Z" fill="#0C54A0"/>
</g>
<defs>
<clipPath id="clip0_194_1111">
<rect width="51" height="50" fill="white" transform="translate(0.625)"/>
</clipPath>
</defs>
</svg>
