<svg width="80" height="20" viewBox="0 0 80 20" fill="none" xmlns="http://www.w3.org/2000/svg">
<g clip-path="url(#clip0_194_1091)">
<path fill-rule="evenodd" clip-rule="evenodd" d="M79.8747 0.704243C79.8747 0.704243 78.4059 0.528564 76.6703 0.528564C74.9791 0.528564 73.5547 0.704243 73.5547 0.704243V6.19422H79.8747V0.704243Z" fill="#E4003E"/>
<path fill-rule="evenodd" clip-rule="evenodd" d="M79.8747 13.6605H73.5547V19.2383C73.5547 19.2383 75.3352 19.414 76.7591 19.414C78.1835 19.414 79.8747 19.1944 79.8747 19.1944V13.6605Z" fill="#E4003E"/>
<path fill-rule="evenodd" clip-rule="evenodd" d="M69.7728 0.704468H61.984L56.5543 7.42419H54.0174V0.704468H47.2969V19.2825H54.0174V12.2993H56.4653L61.9396 19.2825H70.2626L62.1177 9.40055L69.7728 0.704468Z" fill="#242265"/>
<path fill-rule="evenodd" clip-rule="evenodd" d="M22.1047 0.704468H0.875V19.2825H7.68456V5.97484H15.2952V19.2825H22.1047V0.704468Z" fill="#242265"/>
<path fill-rule="evenodd" clip-rule="evenodd" d="M25.3971 5.62344L24.418 0.704432C24.418 0.704432 30.7824 0.221313 34.7435 0.221313C38.7046 0.221313 43.4669 0.704432 43.4669 0.704432C43.4669 0.704432 44.9356 4.48153 44.9356 9.79584C44.9356 15.1101 43.4223 19.2825 43.4223 19.2825C43.4223 19.2825 38.8827 19.7656 34.699 19.7656C30.5154 19.7656 24.418 19.2825 24.418 19.2825L25.3971 14.3635C25.3971 14.3635 29.6698 14.6709 33.3193 14.6709C36.9689 14.6709 38.3931 14.3635 38.3931 14.3635C38.3931 14.3635 38.5711 13.4412 38.6601 12.3871H29.9368V7.64378H38.7046C38.6156 6.41402 38.4376 5.66736 38.4376 5.66736C38.4376 5.66736 35.4556 5.35992 32.9187 5.35992C30.3374 5.316 25.3971 5.62344 25.3971 5.62344Z" fill="#242265"/>
</g>
<defs>
<clipPath id="clip0_194_1091">
<rect width="79" height="20" fill="white" transform="translate(0.875)"/>
</clipPath>
</defs>
</svg>
