<svg width="29" height="28" viewBox="0 0 29 28" fill="none" xmlns="http://www.w3.org/2000/svg">
<g clip-path="url(#clip0_144_2104)">
<path d="M14.334 28C22.066 28 28.334 21.732 28.334 14C28.334 6.26801 22.066 0 14.334 0C6.602 0 0.333984 6.26801 0.333984 14C0.333984 21.732 6.602 28 14.334 28Z" fill="white"/>
<path d="M28.3336 14.0001C28.3336 7.98055 24.5343 2.84895 19.2031 0.87085V27.1293C24.5343 25.1512 28.3336 20.0196 28.3336 14.0001Z" fill="#D80027"/>
<path d="M0.333984 14.0001C0.333984 20.0196 4.13329 25.1512 9.46445 27.1293V0.87085C4.13329 2.84895 0.333984 7.98055 0.333984 14.0001Z" fill="#0052B4"/>
</g>
<defs>
<clipPath id="clip0_144_2104">
<rect width="28" height="28" fill="white" transform="translate(0.333984)"/>
</clipPath>
</defs>
</svg>
