<svg width="15" height="16" viewBox="0 0 15 16" fill="none" xmlns="http://www.w3.org/2000/svg">
<path d="M15 5.64685V0.941442L13.4088 2.58874C12 0.988221 9.95455 0 7.72756 0C3.45513 0 0 3.57694 0 8C0 12.4231 3.45425 16 7.72756 16C9.90938 16 11.8636 15.0586 13.2733 13.5533L12.0009 12.1884C10.9551 13.3645 9.40909 14.1171 7.72756 14.1171C4.45484 14.1171 1.81876 11.3881 1.81876 8.00002C1.81876 4.61191 4.45484 1.88291 7.72756 1.88291C9.45513 1.88291 11.0455 2.68318 12.1364 3.90606L10.4548 5.64687L15 5.64685Z" fill="white"/>
</svg>
