<svg width="39" height="40" viewBox="0 0 39 40" fill="none" xmlns="http://www.w3.org/2000/svg">
<g clip-path="url(#clip0_144_2418)">
<path d="M23.0903 12.1621V13.4672C23.0903 14.0982 22.5787 14.6097 21.9477 14.6097C21.3167 14.6097 20.8051 14.0982 20.8051 13.4672V12.1621H18.1949V13.4672C18.1949 14.0982 17.6834 14.6097 17.0524 14.6097C16.4214 14.6097 15.9098 14.0982 15.9098 13.4672V12.1621H14.4036L13.4336 20.8914H25.5665L24.5965 12.1621H23.0903Z" fill="#D8B075"/>
<path d="M20.8054 8.57173C20.8054 7.85214 20.22 7.2666 19.5004 7.2666C18.7808 7.2666 18.1953 7.85214 18.1953 8.57173V9.87678H20.8055V8.57173H20.8054Z" fill="#D8B075"/>
<path d="M19.5004 0.0864258C10.7725 0.0864258 3.67188 7.18709 3.67188 15.9149C3.67188 29.225 17.649 38.1654 18.9125 38.9236C19.0934 39.0322 19.2969 39.0865 19.5004 39.0865C19.7038 39.0865 19.9074 39.0322 20.0883 38.9236C21.3514 38.1656 35.3289 29.225 35.3289 15.9149C35.3289 7.18709 28.2282 0.0864258 19.5004 0.0864258ZM27.6948 22.7961C27.478 23.0382 27.1685 23.1766 26.8434 23.1766H12.1574C11.8324 23.1766 11.5228 23.0382 11.306 22.7961C11.0893 22.5539 10.9859 22.2309 11.0219 21.9079L12.2457 10.8935C12.31 10.3148 12.7991 9.87703 13.3813 9.87703H15.9102V8.57197C15.9102 6.59234 17.5208 4.98169 19.5004 4.98169C21.48 4.98169 23.0906 6.59234 23.0906 8.57197V9.87703H25.6195C26.2018 9.87703 26.6908 10.3148 26.7551 10.8935L27.9789 21.9079C28.015 22.2309 27.9115 22.5539 27.6948 22.7961Z" fill="#D8B075"/>
</g>
<defs>
<clipPath id="clip0_144_2418">
<rect width="39" height="39" fill="white" transform="translate(0 0.0864258)"/>
</clipPath>
</defs>
</svg>
