<svg width="46" height="47" viewBox="0 0 46 47" fill="none" xmlns="http://www.w3.org/2000/svg">
<path d="M17.7319 19.2115H34.964V12.5151C34.964 11.7757 34.3641 11.1758 33.6247 11.1758H26.9283V16.5329C26.9283 17.2723 26.3284 17.8722 25.589 17.8722C24.8496 17.8722 24.2497 17.2723 24.2497 16.5329V11.1758H10.8569V16.5329C10.8569 17.2723 10.257 17.8722 9.51758 17.8722C8.77818 17.8722 8.17829 17.2723 8.17829 16.5329V11.1758H1.48186C0.742467 11.1758 0.142578 11.7757 0.142578 12.5151V44.7472C0.142578 45.4866 0.742467 46.0865 1.48186 46.0865H13.9442C13.7953 45.6676 13.714 45.217 13.714 44.7472V23.2294C13.714 21.0143 15.5168 19.2115 17.7319 19.2115Z" fill="#D8B075"/>
<path d="M44.5176 21.8901H17.7319C16.9921 21.8901 16.3926 22.4897 16.3926 23.2294V44.7473C16.3926 45.487 16.9921 46.0866 17.7319 46.0866H44.5176C45.2573 46.0866 45.8569 45.487 45.8569 44.7473V23.2294C45.8569 22.4897 45.2573 21.8901 44.5176 21.8901ZM37.3747 31.3991C37.3747 35.0176 34.4307 37.9616 30.8122 37.9616C27.1937 37.9616 24.2497 35.0176 24.2497 31.3991V28.5866C24.2497 27.8468 24.8493 27.2473 25.589 27.2473C26.3288 27.2473 26.9283 27.8468 26.9283 28.5866V31.3991C26.9283 33.5405 28.6708 35.283 30.8122 35.283C32.9537 35.283 34.6961 33.5405 34.6961 31.3991V28.5866C34.6961 27.8468 35.2957 27.2473 36.0354 27.2473C36.7752 27.2473 37.3747 27.8468 37.3747 28.5866V31.3991Z" fill="#D8B075"/>
<path d="M10.8563 9.74707C10.8563 6.05497 13.8606 3.05064 17.5527 3.05064C21.2448 3.05064 24.2492 6.05497 24.2492 9.74707V11.1756H26.9277V9.74707C26.9277 4.57757 22.7222 0.37207 17.5527 0.37207C12.3832 0.37207 8.17773 4.57757 8.17773 9.74707V11.1756H10.8563V9.74707Z" fill="#D8B075"/>
</svg>
