<svg width="42" height="42" viewBox="0 0 42 42" fill="none" xmlns="http://www.w3.org/2000/svg">
<path fill-rule="evenodd" clip-rule="evenodd" d="M21 0C32.59 0 42 9.41 42 21C42 32.59 32.59 42 21 42C9.41 42 0 32.59 0 21C0 9.41 9.41 0 21 0ZM22 39V37C22 36.448 21.552 36 21 36C20.448 36 20 36.448 20 37V39C20 39.552 20.448 40 21 40C21.552 40 22 39.552 22 39ZM34.435 33.021L33.021 31.607C32.631 31.216 31.997 31.216 31.607 31.607C31.216 31.997 31.216 32.631 31.607 33.021L33.021 34.435C33.411 34.825 34.045 34.825 34.435 34.435C34.825 34.045 34.825 33.411 34.435 33.021ZM8.979 34.435L10.393 33.021C10.784 32.631 10.784 31.997 10.393 31.607C10.003 31.216 9.369 31.216 8.979 31.607L7.565 33.021C7.175 33.411 7.175 34.045 7.565 34.435C7.955 34.825 8.589 34.825 8.979 34.435ZM20 8.979V21C20 21.265 20.105 21.52 20.293 21.707L28.293 29.707C28.683 30.097 29.317 30.097 29.707 29.707C30.097 29.317 30.097 28.683 29.707 28.293L22 20.586V8.979C22 8.427 21.552 7.979 21 7.979C20.448 7.979 20 8.427 20 8.979ZM3 22H5C5.552 22 6 21.552 6 21C6 20.448 5.552 20 5 20H3C2.448 20 2 20.448 2 21C2 21.552 2.448 22 3 22ZM39 20H37C36.448 20 36 20.448 36 21C36 21.552 36.448 22 37 22H39C39.552 22 40 21.552 40 21C40 20.448 39.552 20 39 20ZM7.565 8.979L8.979 10.393C9.369 10.784 10.003 10.784 10.393 10.393C10.784 10.003 10.784 9.369 10.393 8.979L8.979 7.565C8.589 7.175 7.955 7.175 7.565 7.565C7.175 7.955 7.175 8.589 7.565 8.979ZM33.021 7.565L31.607 8.979C31.216 9.369 31.216 10.003 31.607 10.393C31.997 10.784 32.631 10.784 33.021 10.393L34.435 8.979C34.825 8.589 34.825 7.955 34.435 7.565C34.045 7.175 33.411 7.175 33.021 7.565ZM20 3V5C20 5.552 20.448 6 21 6C21.552 6 22 5.552 22 5V3C22 2.448 21.552 2 21 2C20.448 2 20 2.448 20 3Z" fill="white"/>
</svg>
