<svg width="16" height="16" viewBox="0 0 16 16" fill="none" xmlns="http://www.w3.org/2000/svg">
<g clip-path="url(#clip0_84_789)">
<path d="M8 16C12.4183 16 16 12.4183 16 8C16 3.58172 12.4183 0 8 0C3.58172 0 0 3.58172 0 8C0 12.4183 3.58172 16 8 16Z" fill="white"/>
<path d="M15.9987 8.00003C15.9987 4.56031 13.8277 1.62796 10.7812 0.49762V15.5025C13.8277 14.3721 15.9987 11.4397 15.9987 8.00003Z" fill="#D80027"/>
<path d="M0 8.00003C0 11.4397 2.17103 14.3721 5.21741 15.5024V0.49762C2.17103 1.62796 0 4.56031 0 8.00003Z" fill="#0052B4"/>
</g>
<defs>
<clipPath id="clip0_84_789">
<rect width="16" height="16" fill="white"/>
</clipPath>
</defs>
</svg>
