<svg width="29" height="28" viewBox="0 0 29 28" fill="none" xmlns="http://www.w3.org/2000/svg">
<mask id="mask0_144_2115" style="mask-type:luminance" maskUnits="userSpaceOnUse" x="0" y="0" width="29" height="28">
<path d="M28.666 14C28.666 17.713 27.191 21.274 24.5655 23.8995C21.94 26.525 18.379 28 14.666 28C10.953 28 7.39203 26.525 4.76652 23.8995C2.14101 21.274 0.666016 17.713 0.666016 14C0.666016 10.287 2.14101 6.72602 4.76652 4.10051C7.39203 1.475 10.953 0 14.666 0C18.379 0 21.94 1.475 24.5655 4.10051C27.191 6.72602 28.666 10.287 28.666 14Z" fill="white"/>
</mask>
<g mask="url(#mask0_144_2115)">
<path d="M28.6699 0.000732422V9.33282L0.673655 9.33282V0.000732422L28.6699 0.000732422Z" fill="#479951"/>
<path d="M28.6699 9.33276V18.6649H0.673655V9.33276L28.6699 9.33276Z" fill="white"/>
<path d="M28.6699 18.6649V27.997H0.673655V18.6649H28.6699Z" fill="#222222"/>
<path d="M10.0059 27.9969H0.67377V0.000680923H10.0059V27.9969Z" fill="#E74C3C"/>
</g>
</svg>
