<svg width="32" height="32" viewBox="0 0 32 32" fill="none" xmlns="http://www.w3.org/2000/svg">
<path d="M16 0C12.8355 0 9.74207 0.938384 7.11088 2.69649C4.4797 4.45459 2.42894 6.95345 1.21793 9.87706C0.00693255 12.8007 -0.309921 16.0177 0.307443 19.1214C0.924806 22.2251 2.44866 25.0761 4.6863 27.3137C6.92394 29.5513 9.77486 31.0752 12.8786 31.6926C15.9823 32.3099 19.1993 31.9931 22.1229 30.7821C25.0466 29.5711 27.5454 27.5203 29.3035 24.8891C31.0616 22.2579 32 19.1645 32 16C31.9953 11.758 30.308 7.69107 27.3085 4.69151C24.3089 1.69195 20.242 0.00472736 16 0ZM22.7423 12.8193L14.8093 20.7628C14.7059 20.8666 14.5829 20.9491 14.4476 21.0053C14.3122 21.0615 14.1671 21.0905 14.0205 21.0905C13.8739 21.0905 13.7287 21.0615 13.5934 21.0053C13.458 20.9491 13.3351 20.8666 13.2316 20.7628L9.25768 16.7888C9.0605 16.5772 8.95315 16.2973 8.95826 16.0082C8.96336 15.719 9.08051 15.443 9.28503 15.2385C9.48955 15.034 9.76548 14.9168 10.0547 14.9117C10.3439 14.9066 10.6237 15.014 10.8354 15.2112L14.016 18.3903L21.1602 11.2461C21.3718 11.049 21.6517 10.9416 21.9409 10.9467C22.2301 10.9518 22.506 11.069 22.7105 11.2735C22.915 11.478 23.0322 11.7539 23.0373 12.0431C23.0424 12.3323 22.935 12.6122 22.7379 12.8238L22.7423 12.8193Z" fill="#667884" fill-opacity="0.32"/>
</svg>
