<svg width="41" height="42" viewBox="0 0 41 42" fill="none" xmlns="http://www.w3.org/2000/svg">
<g clip-path="url(#clip0_144_2425)">
<path d="M13.5146 3.47109H21.6993C22.634 3.47109 23.3916 2.71339 23.3916 1.7788V0.0864258H11.8223V1.77872C11.8223 2.71339 12.58 3.47109 13.5146 3.47109Z" fill="#D8B075"/>
<path d="M20.7456 10.4593C20.7456 9.7959 21.2834 9.25809 21.9468 9.25809H29.426V3.71885C29.4261 1.71594 27.7965 0.0864258 25.7936 0.0864258V1.77872C25.7936 4.04012 23.9604 5.87335 21.699 5.87335H13.5142C11.2528 5.87335 9.41953 4.04012 9.41953 1.77872V0.0864258C7.41662 0.0864258 5.78711 1.71594 5.78711 3.71885V17.9385H7.47932C9.73712 17.9385 11.574 19.7753 11.574 22.0331C11.574 23.1617 11.115 24.1852 10.3738 24.9266C11.1149 25.6679 11.574 26.6914 11.574 27.82C11.574 29.3536 10.726 30.6923 9.47479 31.3937C9.88695 32.0324 10.1273 32.7919 10.1273 33.607C10.1273 35.8648 8.29043 37.7016 6.03263 37.7016C5.95311 37.7016 5.87431 37.6987 5.79592 37.6942C5.92028 39.5856 7.4975 41.0864 9.41953 41.0864H25.7936C27.7965 41.0864 29.4261 39.4569 29.4261 37.454V18.8941H29.1805C24.5295 18.8941 20.7456 15.1102 20.7456 10.4593ZM20.5 37.7018H14.713C14.0497 37.7018 13.5118 37.164 13.5118 36.5006C13.5118 35.8372 14.0497 35.2994 14.713 35.2994H20.5C21.1634 35.2994 21.7012 35.8372 21.7012 36.5006C21.7012 37.164 21.1634 37.7018 20.5 37.7018Z" fill="#D8B075"/>
<path d="M7.72451 33.6073C7.72451 32.6742 6.96537 31.915 6.03221 31.915C5.09906 31.915 4.33984 32.6742 4.33984 33.6073C4.33984 34.5405 5.09898 35.2996 6.03221 35.2996C6.96529 35.2996 7.72451 34.5405 7.72451 33.6073Z" fill="#D8B075"/>
<path d="M3.38474 17.9384V14.5537H1.69229C0.757699 14.5537 0 15.3114 0 16.246C0 17.1806 0.757699 17.9383 1.69229 17.9383H3.38474V17.9384Z" fill="#D8B075"/>
<path d="M7.47979 23.7254C8.41446 23.7254 9.17208 22.9677 9.17208 22.0331C9.17208 21.0985 8.41438 20.3408 7.47979 20.3408H3.13956C2.20488 20.3408 1.44727 21.0985 1.44727 22.0331C1.44727 22.9677 2.20488 23.7254 3.13956 23.7254H7.47979Z" fill="#D8B075"/>
<path d="M7.47841 29.5126C8.41308 29.5126 9.1707 28.7549 9.1707 27.8203C9.1707 26.8857 8.41308 26.1279 7.47841 26.1279H4.58487C3.6502 26.1279 2.89258 26.8856 2.89258 27.8202C2.89258 28.7548 3.65028 29.5125 4.58487 29.5125H7.47841V29.5126Z" fill="#D8B075"/>
<path d="M39.7983 19.1607H37.0597V15.6005C37.0597 13.4246 35.2957 11.6606 33.1198 11.6606H23.2676C23.826 14.4136 26.2648 16.492 29.18 16.492H30.6267C31.29 16.492 31.8279 17.0298 31.8279 17.6932V35.2997H33.1198C35.296 35.2997 37.0597 33.536 37.0597 31.3599H39.7983C40.4617 31.3599 40.9995 30.8221 40.9995 30.1587V20.3619C40.9995 19.6985 40.4617 19.1607 39.7983 19.1607Z" fill="#D8B075"/>
</g>
<defs>
<clipPath id="clip0_144_2425">
<rect width="41" height="41" fill="white" transform="translate(0 0.0864258)"/>
</clipPath>
</defs>
</svg>
