<svg width="43" height="44" viewBox="0 0 43 44" fill="none" xmlns="http://www.w3.org/2000/svg">
<g clip-path="url(#clip0_144_2437)">
<path d="M20.7738 16.9592C21.0135 16.7196 21.1455 16.401 21.1455 16.062C21.1455 15.723 21.0135 15.4043 20.7738 15.1647C20.5341 14.925 20.2154 14.793 19.8764 14.793C19.5375 14.793 19.2188 14.9249 18.9791 15.1647C18.7394 15.4043 18.6074 15.723 18.6074 16.062C18.6074 16.401 18.7394 16.7196 18.9791 16.9592C19.2188 17.1989 19.5375 17.3309 19.8764 17.3309C20.2154 17.3309 20.5341 17.1989 20.7738 16.9592Z" fill="#D8B075"/>
<path d="M18.9785 31.2571C19.2181 31.4968 19.5369 31.6288 19.8758 31.6288C20.2148 31.6288 20.5335 31.4968 20.7732 31.2571C21.268 30.7624 21.268 29.9572 20.7732 29.4624C20.2784 28.9675 19.4733 28.9677 18.9784 29.4625C18.4837 29.9573 18.4837 30.7623 18.9785 31.2571Z" fill="#D8B075"/>
<path d="M42.9665 4.59122C42.96 2.13221 40.9542 0.126363 38.4952 0.119819L25.9711 0.0864258C25.9654 0.0864258 25.9601 0.0864258 25.9545 0.0864258C24.2975 0.0864258 22.6763 0.757644 21.5046 1.92951L1.10594 22.3282C-0.366042 23.8003 -0.366042 26.1956 1.10594 27.6677L15.4188 41.9806C16.132 42.6938 17.0801 43.0865 18.0886 43.0865C19.0971 43.0865 20.0452 42.6938 20.7583 41.9806L41.157 21.5819C42.3328 20.4061 43.0046 18.7783 43.0001 17.1156L42.9665 4.59122ZM37.9029 8.96958C37.9029 11.0572 36.2044 12.7557 34.1168 12.7557C32.0291 12.7557 30.3307 11.0572 30.3307 8.96958C30.3307 6.88192 32.0291 5.18349 34.1168 5.18349C36.2044 5.18349 37.9029 6.88192 37.9029 8.96958ZM10.6898 24.4692C9.9948 24.4692 9.43131 23.9057 9.43131 23.2106C9.43131 22.5156 9.9948 21.9521 10.6898 21.9521H29.0618C29.7568 21.9521 30.3203 22.5156 30.3203 23.2106C30.3203 23.9057 29.7568 24.4692 29.0618 24.4692H10.6898ZM22.553 33.0369C21.8149 33.7749 20.8453 34.144 19.8758 34.144C18.9063 34.144 17.9367 33.7749 17.1986 33.0369C15.7225 31.5606 15.7225 29.1587 17.1986 27.6826C17.1986 27.6826 17.1986 27.6826 17.1987 27.6825C18.6749 26.2065 21.0769 26.2065 22.553 27.6825C24.0291 29.1586 24.0291 31.5607 22.553 33.0369ZM16.0897 16.0617C16.0897 15.0503 16.4835 14.0996 17.1986 13.3845C18.6747 11.9083 21.0768 11.9083 22.5529 13.3845C23.268 14.0995 23.6618 15.0503 23.6618 16.0617C23.6618 17.073 23.268 18.0237 22.5529 18.7388C21.8149 19.4768 20.8451 19.8459 19.8757 19.8459C18.9061 19.8459 17.9367 19.477 17.1986 18.7387C16.4835 18.0237 16.0897 17.073 16.0897 16.0617Z" fill="#D8B075"/>
</g>
<defs>
<clipPath id="clip0_144_2437">
<rect width="43" height="43" fill="white" transform="translate(0 0.0864258)"/>
</clipPath>
</defs>
</svg>
