<svg width="16" height="16" viewBox="0 0 16 16" fill="none" xmlns="http://www.w3.org/2000/svg">
<mask id="mask0_84_795" style="mask-type:luminance" maskUnits="userSpaceOnUse" x="0" y="0" width="16" height="16">
<path d="M16 8C16 10.1217 15.1571 12.1566 13.6569 13.6569C12.1566 15.1571 10.1217 16 8 16C5.87827 16 3.84344 15.1571 2.34315 13.6569C0.842856 12.1566 0 10.1217 0 8C0 5.87827 0.842856 3.84344 2.34315 2.34315C3.84344 0.842855 5.87827 0 8 0C10.1217 0 12.1566 0.842855 13.6569 2.34315C15.1571 3.84344 16 5.87827 16 8Z" fill="white"/>
</mask>
<g mask="url(#mask0_84_795)">
<path d="M16 0.000427246V5.33305L0.00213432 5.33305V0.000427246L16 0.000427246Z" fill="#479951"/>
<path d="M16 5.33307V10.6657H0.00213432V5.33307L16 5.33307Z" fill="white"/>
<path d="M16 10.6656V15.9983H0.00213432V10.6656L16 10.6656Z" fill="#222222"/>
<path d="M5.33594 15.9983H0.00331497V0.000425339H5.33594V15.9983Z" fill="#E74C3C"/>
</g>
</svg>
