<svg width="12" height="13" viewBox="0 0 12 13" fill="none" xmlns="http://www.w3.org/2000/svg">
<path d="M10.1875 5.4121C10.2013 3.79075 8.82038 2.30439 7.10921 2.09885C7.07517 2.09482 7.0381 2.08868 6.99885 2.08218C6.91413 2.06814 6.82653 2.05371 6.73813 2.05371C6.38742 2.05371 6.29367 2.30007 6.26899 2.447C6.24499 2.58985 6.26788 2.70982 6.33692 2.80371C6.45306 2.96164 6.65742 2.98968 6.82156 3.01214C6.86967 3.01878 6.91506 3.02496 6.95306 3.0335C8.49049 3.37703 9.00817 3.91714 9.26117 5.4415C9.26735 5.47875 9.27013 5.52464 9.2731 5.57332C9.28413 5.75553 9.30713 6.13464 9.7147 6.13464H9.71474C9.74867 6.13464 9.78513 6.13171 9.8231 6.12593C10.2026 6.06825 10.1907 5.72171 10.185 5.55521C10.1834 5.50832 10.1819 5.46396 10.1858 5.43446C10.1869 5.42703 10.1875 5.41957 10.1875 5.4121Z" fill="white"/>
<path d="M6.63857 1.50385C6.6841 1.50714 6.72721 1.51028 6.7631 1.51578C9.28771 1.90403 10.4487 3.10018 10.7705 5.64453C10.776 5.68778 10.7768 5.74053 10.7777 5.79639C10.7809 5.99518 10.7875 6.40871 11.2316 6.41728L11.2454 6.41743C11.3847 6.41743 11.4955 6.37543 11.5747 6.2925C11.713 6.14789 11.7034 5.93307 11.6956 5.76043C11.6937 5.71807 11.6919 5.67818 11.6923 5.64325C11.7244 3.04103 9.47192 0.681354 6.87203 0.593604C6.86124 0.593247 6.85096 0.593819 6.84057 0.595283C6.83546 0.596033 6.82599 0.596961 6.80978 0.596961C6.78385 0.596961 6.75196 0.594711 6.71814 0.592426C6.67724 0.58964 6.63089 0.586426 6.58389 0.586426C6.16985 0.586426 6.09114 0.880711 6.08106 1.05614C6.05785 1.46157 6.45007 1.4901 6.63857 1.50385Z" fill="white"/>
<path d="M10.6479 8.93289C10.5942 8.89189 10.5387 8.84946 10.4868 8.80761C10.2111 8.58578 9.91786 8.38132 9.63425 8.18357C9.5754 8.14257 9.51654 8.10153 9.4579 8.06039C9.09461 7.80521 8.768 7.68121 8.45943 7.68121C8.04383 7.68121 7.68147 7.91086 7.3824 8.36368C7.2499 8.56443 7.08915 8.66203 6.89104 8.66203C6.7739 8.66203 6.64079 8.62861 6.49547 8.56264C5.32286 8.03089 4.48554 7.21561 4.00672 6.13943C3.77525 5.61928 3.85029 5.27928 4.25765 5.00257C4.48897 4.84557 4.91954 4.55329 4.88904 3.99357C4.85451 3.35796 3.45208 1.4455 2.86118 1.22829C2.61101 1.13629 2.34815 1.13543 2.0785 1.22614C1.39922 1.4545 0.911755 1.85554 0.668683 2.38582C0.43379 2.89821 0.444398 3.49986 0.699362 4.12571C1.43643 5.93521 2.47272 7.51286 3.77954 8.81475C5.05868 10.0892 6.63086 11.1331 8.45236 11.9174C8.61654 11.9881 8.78875 12.0266 8.91451 12.0547C8.95736 12.0644 8.99436 12.0726 9.02133 12.08C9.03615 12.084 9.05143 12.0862 9.06676 12.0863L9.08115 12.0864C9.08115 12.0864 9.08115 12.0864 9.08122 12.0864C9.93793 12.0864 10.9666 11.3035 11.2825 10.411C11.5593 9.62954 11.054 9.24325 10.6479 8.93289Z" fill="white"/>
<path d="M7.01644 3.57062C6.86976 3.57434 6.56451 3.58191 6.4574 3.8928C6.4073 4.03809 6.4133 4.16423 6.47526 4.26773C6.56619 4.41959 6.7404 4.46612 6.89887 4.49166C7.47355 4.58387 7.76869 4.90166 7.82772 5.49166C7.85515 5.76677 8.0404 5.95887 8.27826 5.95887C8.29583 5.95887 8.31383 5.95784 8.33172 5.95566C8.6178 5.92163 8.75647 5.71145 8.74394 5.33102C8.74851 4.93398 8.54072 4.48323 8.18733 4.1242C7.83272 3.76405 7.40526 3.56123 7.01644 3.57062Z" fill="white"/>
</svg>
