<svg width="34" height="34" viewBox="0 0 34 34" fill="none" xmlns="http://www.w3.org/2000/svg">
<path d="M33 33L27.0743 27.0599M31.5404 16.2702C31.5404 20.3201 29.9315 24.2041 27.0678 27.0678C24.2041 29.9315 20.3201 31.5404 16.2702 31.5404C12.2203 31.5404 8.33624 29.9315 5.47253 27.0678C2.60882 24.2041 1 20.3201 1 16.2702C1 12.2203 2.60882 8.33624 5.47253 5.47253C8.33624 2.60882 12.2203 1 16.2702 1C20.3201 1 24.2041 2.60882 27.0678 5.47253C29.9315 8.33624 31.5404 12.2203 31.5404 16.2702Z" stroke="white" stroke-width="1.6" stroke-linecap="round"/>
<path d="M15.6746 15.6376V10H17.3254V15.6376H23V17.2851H17.3254V23H15.6746V17.2851H10V15.6376H15.6746Z" fill="white"/>
</svg>
