<svg width="248" height="45" fill="none" xmlns="http://www.w3.org/2000/svg"><g clip-path="url(#clip0_2001_79)" fill="#fff"><path fill-rule="evenodd" clip-rule="evenodd" d="M21.2 0h21.2v21.2c0 11.4-9.1 20.8-20.4 21.2 7-2.1 12-8.6 12-16.2V9.1H17C8.5 9.1 1.4 15.4.1 23.6c-.1-.7-.1-1.5-.1-2.4C0 9.6 9.6 0 21.2 0z"/><path fill-rule="evenodd" clip-rule="evenodd" d="M12.5 17.5H25V30c0 6.9-5.6 12.5-12.5 12.5H0V30c0-6.9 5.6-12.5 12.5-12.5z"/><path d="M77.4 22h-.3l-2.4 6.2-4.1 10.1c-.3.8-.7 1.3-1 1.6-.3.3-.9.4-1.6.4h-2c-.8 0-1.3-.1-1.6-.4-.3-.3-.6-.8-.9-1.6l-4-9.6-2.5-6.2h-.3V43c0 .4-.1.7-.2.8-.2.2-.5.2-.9.2h-3.3c-.3 0-.6-.1-.8-.2-.2-.1-.3-.4-.3-.8V14.8c0-.9.2-1.6.5-2.1.4-.5 1.1-.7 2.1-.7h1.9c.8 0 1.4.1 1.8.4.4.3.8.8 1.1 1.6L64 27.4l2.8 7.1h.2l2.8-7.1 5.4-13.3c.3-.8.7-1.4 1.1-1.6.4-.3 1-.4 1.8-.4h1.7c1 0 1.7.2 2.1.6.4.4.6 1.1.6 2.1v28.4c0 .4-.1.7-.2.8h-3.8c-.3 0-.6-.1-.8-.2-.2-.1-.3-.4-.3-.8V22zm33 9.9c0 4-.9 7.2-2.8 9.3-1.9 2.2-4.7 3.3-8.4 3.3s-6.4-1.1-8.2-3.2c-1.8-2.1-2.7-5.2-2.7-9.3 0-2 .3-3.8.8-5.3.5-1.6 1.3-2.9 2.3-3.9 1-1.1 2.1-1.9 3.5-2.4 1.4-.6 2.9-.8 4.5-.8 3.6 0 6.4 1.1 8.2 3.3 1.8 2.1 2.8 5.2 2.8 9zm-5.5.2c0-1.1-.1-2.1-.3-3.1-.2-1-.5-1.8-.9-2.6s-1-1.3-1.7-1.8c-.7-.4-1.6-.6-2.7-.6-1 0-1.8.2-2.6.6-.7.4-1.3 1-1.8 1.7s-.8 1.5-1.1 2.5c-.2 1-.3 2-.3 3.2 0 2.5.4 4.5 1.2 6 .8 1.5 2.3 2.2 4.4 2.2 1.1 0 2-.2 2.7-.7.7-.4 1.3-1 1.8-1.8.4-.7.8-1.6 1-2.5.2-1 .3-2.1.3-3.1zm20.9 7.8c1 0 1.9-.1 2.9-.4 1-.2 1.8-.5 2.4-.8.3-.2.6-.2.7-.1.1.1.3.2.3.5l1.1 2.6c.3.5.2.9-.3 1.1-1.2.7-2.6 1.2-4 1.4-1.4.2-2.8.3-4 .3-3.4 0-6-1-7.8-3.1-1.8-2.1-2.7-5.1-2.7-9.2 0-1.9.3-3.7.8-5.2.5-1.6 1.3-2.9 2.2-4 1-1.1 2.1-2 3.5-2.6 1.4-.6 2.9-.9 4.6-.9 1.2 0 2.5.1 3.6.4 1.2.3 2.3.7 3.3 1.2.3.2.4.3.5.5.1.2 0 .4-.1.7l-1.1 2.7c-.1.2-.3.4-.4.5-.1.1-.4 0-.8-.1-.7-.3-1.5-.5-2.3-.7-.8-.2-1.6-.3-2.5-.3-1 0-1.9.2-2.7.7-.7.4-1.4 1-1.8 1.8-.5.7-.8 1.6-1 2.5-.2 1-.3 2-.3 3 0 1.1.1 2.1.3 3 .2.9.5 1.7.9 2.4s1 1.2 1.8 1.6c.8.3 1.7.5 2.9.5zm29.8-13c.8.3 1.4.6 2 .9.5.4.9.8 1.3 1.2.3.5.6 1 .8 1.6l.6 1.8 2.8 10.6c.1.2.1.3 0 .6 0 .2-.3.3-.7.3h-4c-.2 0-.3 0-.5-.1s-.3-.2-.4-.5l-2.7-10c-.5-1.6-1.1-2.7-2-3.3-.9-.5-2.1-.8-3.7-.8h-5.2v14c0 .3-.1.5-.2.6-.1.1-.3.1-.6.1h-3.9c-.3 0-.5 0-.6-.1-.1-.1-.2-.3-.2-.6V12.8c0-.3.1-.5.2-.6.1-.1.3-.1.6-.1h3.9c.3 0 .5 0 .6.1.1.1.2.3.1.6v11.9h4.9c.5 0 .9 0 1.5-.1.5-.1 1-.3 1.5-.6s1-.7 1.4-1.3c.4-.6.8-1.4 1-2.3l2-7.7c.1-.3.2-.5.4-.5.2-.1.4-.1.5-.1h3.7c.4 0 .6.1.7.3v.6l-2 8.2c-.3 1.3-.8 2.4-1.4 3.4-.6 1-1.4 1.7-2.4 2.3zm29.4-6.8c1 0 1.7.2 2 .6.4.4.5 1.1.5 1.9v20.5c0 .3-.1.6-.2.7-.1.1-.4.2-.8.2h-3.3c-.3 0-.6-.1-.7-.2-.1-.1-.3-.3-.3-.7V24.5H175l-.2 2.9c-.2 2.9-.4 5.3-.7 7.4-.3 2-.7 3.7-1.2 5-.5 1.3-1.3 2.4-2.2 3.2-.9.8-2.2 1.4-3.7 1.8-.4.1-.7.2-.9.1-.2 0-.3-.2-.4-.5l-.9-2.5c-.1-.4-.1-.6-.1-.8.1-.1.3-.3.7-.5.8-.3 1.4-.7 1.9-1.2s.9-1.1 1.3-2.1c.3-.9.6-2.2.8-3.7.2-1.5.4-3.6.6-6.2l.4-4.8c.1-.9.3-1.6.8-2 .4-.4 1.1-.6 1.9-.6H185v.1zm8.5.7c0-.3.1-.5.2-.6.1-.1.3-.1.6-.1h3.6c.3 0 .6 0 .7.1.1.1.2.3.2.6v15.7h.2l2.8-4.6c.2-.3.4-.6.6-1 .2-.4.5-.9 1-1.6.5-.7 1.1-1.7 1.8-2.9.8-1.2 1.8-2.8 3.1-4.9.4-.6.7-1 1.1-1.2.3-.2.8-.3 1.6-.3h1.6c.7 0 1.3.2 1.7.5.4.3.6.9.6 1.7v21.1c0 .3-.1.5-.2.6-.1.1-.3.1-.6.1h-3.7c-.3 0-.5 0-.6-.1-.1-.1-.2-.3-.2-.6V27.9h-.3l-2.7 4.4-6.6 10.3c-.4.6-.8 1-1.1 1.2-.3.2-.8.3-1.5.3h-1.6c-1.5 0-2.2-.7-2.2-2.2V20.8h-.1zm49.1 7.7l-2.2 5-3 6.3c-.3.6-.6 1-.9 1.2-.3.2-.8.3-1.4.3h-1.6c-.6 0-1.1-.1-1.4-.3-.3-.2-.6-.6-.9-1.2l-2.8-5.9-2.3-4.9h-.2v14.4c0 .3-.1.5-.2.6-.1.1-.4.1-.7.1h-3.4c-.3 0-.5 0-.7-.1-.2-.1-.2-.3-.2-.6v-21c0-.6.2-1.1.5-1.6.4-.4 1-.6 1.8-.6h2.1c.6 0 1.1.1 1.5.3.4.2.7.6 1.1 1.3l4 8.3 2.6 5.7h.2l2.9-6.2 3.7-7.7c.3-.7.7-1.1 1.1-1.3.4-.2.9-.3 1.6-.3h2c.8 0 1.4.2 1.8.6.4.4.5.9.5 1.5v21.1c0 .3-.1.5-.2.6-.1.1-.4.1-.7.1h-3.3c-.3 0-.6 0-.7-.1-.1-.1-.2-.3-.2-.6v-15h-.4zM171.1 11v5.4h1.2V12h2v-1h-3.2zm3.9 7.5h1.2v-2.8c.2.4.8.7 1.4.7 1.1 0 2.2-.9 2.2-2.9 0-1.7-.9-2.7-2-2.7-.7 0-1.3.3-1.7.9l-.1-.8h-1v7.6zm1.3-5.2V13c.1-.6.6-1 1.1-1 .8 0 1.2.8 1.2 1.7 0 1.1-.5 1.8-1.2 1.8-.5 0-1-.4-1.1-.9v-1.3zm3.8-2.3l1.8 4.9c.1.1.1.2.1.3 0 .1 0 .1-.1.2-.2.4-.4.7-.7.8-.2.2-.5.3-.7.4l.3 1.1c.3 0 .8-.2 1.3-.7.6-.5 1-1.4 1.7-3.4L185 11h-1.3l-.8 2.9c-.1.4-.2.7-.3 1.1-.1-.3-.2-.7-.3-1l-.9-2.9h-1.3V11zm5.6 0v5.4h1.2V12h1.8v4.3h1.2V11h-4.2zm5.6 0v5.4h1.2V12h1.8v4.3h1.2V11h-4.2zm9.4 5.3c-.1-.3-.1-.8-.1-1.3v-1.9c0-1.2-.4-2.3-2-2.3-.8 0-1.4.2-1.8.5l.2.9c.3-.2.8-.4 1.3-.4.9 0 1 .6 1 .9v.1c-1.8 0-2.9.7-2.9 2 0 .8.5 1.6 1.5 1.6.6 0 1.1-.3 1.4-.7l.1.6h1.3zm-1.2-1.8v.3c-.1.4-.5.7-1 .7-.4 0-.7-.2-.7-.8 0-.8.8-1 1.7-1v.8zM204 11v5.4h1.2v-2.2h.2c.6 0 1 .4 1.3 1.1.2.5.3.9.4 1.1h1.3c-.2-.5-.4-1.1-.5-1.5-.3-.9-.7-1.4-1.4-1.6l1.9-2.4h-1.5l-1.5 2.2h-.2V11H204zm7.2-.1c-1.5 0-2.5 1.1-2.5 2.8 0 1.7 1.1 2.8 2.4 2.8 1.2 0 2.5-.9 2.5-2.8 0-1.7-.9-2.8-2.4-2.8zm0 .9c.8 0 1.2 1 1.2 1.8 0 1.1-.5 1.8-1.2 1.8s-1.2-.8-1.2-1.8c0-.8.3-1.8 1.2-1.8zm3.2 4.5h1.1l.1-2.3c0-.5 0-1.2.1-1.9.1.5.3 1.3.4 1.8l.7 2.4h.9l.8-2.4c.3-.8.3-1.1.5-1.7 0 .6 0 1.4.1 1.9l.1 2.3h1.1L220 11h-1.5l-.6 2.1c-.2.6-.4 1.2-.5 1.6-.1-.5-.3-1-.4-1.4l-.7-2.3h-1.5l-.4 5.3zm7-5.3v5.4h1.2V12h1.8v4.3h1.2V11h-4.2zm9.5 5.3c-.1-.3-.1-.8-.1-1.3v-1.9c0-1.2-.4-2.3-2-2.3-.8 0-1.4.2-1.8.5l.2.9c.3-.2.8-.4 1.3-.4.9 0 1 .6 1 .9v.1c-1.8 0-2.9.7-2.9 2 0 .8.5 1.6 1.5 1.6.6 0 1.1-.3 1.4-.7l.1.6h1.3zm-1.3-1.8v.3c-.1.4-.5.7-1 .7-.4 0-.7-.2-.7-.8 0-.8.8-1 1.7-1v.8zm2.5-3.5v5.4h1.2v-2.3h1.9v2.3h1.2V11h-1.2v2h-1.9v-2h-1.2zm5.6 0v5.4h1.5c.4-.9.9-1.8 1.2-2.6.2-.5.4-.9.6-1.5 0 1-.1 1.4-.1 2.3v1.9h1.2V11h-1.5l-1.2 2.5c-.2.6-.4 1-.7 1.6 0-.7.1-1.3.1-2.2V11h-1.1zm5.8 0v5.4h1.5c.4-.9.9-1.8 1.2-2.6.2-.5.4-.9.6-1.5 0 1-.1 1.4-.1 2.3v1.9h1.2V11h-1.5l-1.2 2.5c-.2.6-.4 1-.7 1.6 0-.7.1-1.3.1-2.2V11h-1.1zm.8-2.2c0 .9.4 1.5 1.3 1.5.8 0 1.4-.5 1.4-1.5h-.8c0 .5-.2.8-.6.8-.3 0-.5-.3-.5-.8h-.8z"/></g><defs><clipPath id="clip0_2001_79"><path fill="#fff" d="M0 0h247.9v44.8H0z"/></clipPath></defs></svg>