<svg width="32" height="33" fill="none" xmlns="http://www.w3.org/2000/svg"><path d="M9.333 24.5v-3.333m0 0v-2c0-.629 0-.943.205-1.138.205-.196.535-.196 1.195-.196h.933c.967 0 1.75.747 1.75 1.667s-.783 1.667-1.75 1.667H9.333zM28 17.833h-1.75c-1.1 0-1.65 0-1.992.326-.342.325-.342.849-.342 1.896v1.112m0 3.333v-3.333m0 0h2.917m-5.833 0c0 1.84-1.567 3.333-3.5 3.333-.436 0-.655 0-.817-.09-.389-.213-.35-.646-.35-1.021v-4.445c0-.375-.039-.807.35-1.021.162-.09.38-.09.817-.09 1.933 0 3.5 1.493 3.5 3.334z" stroke="#fff" stroke-width="1.5" stroke-linecap="round" stroke-linejoin="round"/><path d="M20 29.833h-5.697c-4.348 0-6.522 0-8.032-1.063a5.511 5.511 0 01-1.14-1.074C4 26.276 4 24.23 4 20.136v-3.394c0-3.95 0-5.926.625-7.504 1.005-2.536 3.13-4.537 5.825-5.483 1.677-.588 3.776-.588 7.974-.588 2.398 0 3.598 0 4.556.336 1.54.54 2.754 1.684 3.329 3.133.357.902.357 2.03.357 4.288v2.91" stroke="#fff" stroke-width="1.5" stroke-linecap="round" stroke-linejoin="round"/><path d="M4 16.5a4.444 4.444 0 014.444-4.444c.888 0 1.934.155 2.797-.076a2.222 2.222 0 001.572-1.572c.231-.863.076-1.91.076-2.797a4.444 4.444 0 014.444-4.444" stroke="#fff" stroke-width="1.5" stroke-linecap="round" stroke-linejoin="round"/></svg>