<svg width="36" height="36" fill="none" xmlns="http://www.w3.org/2000/svg"><path d="M0 16C0 7.163 7.163 0 16 0h20v20c0 8.837-7.163 16-16 16H0V16z" fill="#fff"/><g clip-path="url(#clip0_111_507)" fill-rule="evenodd" clip-rule="evenodd"><path d="M18.144 2.88h15.264v15.264c0 8.208-6.552 14.976-14.688 15.264 5.04-1.512 8.64-6.192 8.64-11.664V9.432H15.12c-6.12 0-11.232 4.536-12.168 10.44-.072-.504-.072-1.08-.072-1.728C2.88 9.792 9.792 2.88 18.144 2.88z" fill="url(#paint0_linear_111_507)"/><path d="M11.88 15.48h9v9c0 4.968-4.032 9-9 9h-9v-9c0-4.968 4.032-9 9-9z" fill="url(#paint1_linear_111_507)"/></g><defs><linearGradient id="paint0_linear_111_507" x1="2.88" y1="18.144" x2="33.479" y2="18.144" gradientUnits="userSpaceOnUse"><stop stop-color="#2E5E6D"/><stop offset="1" stop-color="#214250"/></linearGradient><linearGradient id="paint1_linear_111_507" x1="2.88" y1="24.48" x2="20.848" y2="24.48" gradientUnits="userSpaceOnUse"><stop stop-color="#518311"/><stop offset="1" stop-color="#79BF1B"/></linearGradient><clipPath id="clip0_111_507"><path fill="#fff" transform="translate(2.88 2.88)" d="M0 0h30.528v30.6H0z"/></clipPath></defs></svg>