<svg viewBox="0 0 42 42" xmlns="http://www.w3.org/2000/svg" xmlns:xlink="http://www.w3.org/1999/xlink"><style>:root&gt;svg{display:none}:root&gt;svg:target{display:block}</style><svg fill="none" viewBox="0 0 15 16" id="sprite--arrow-ring" xmlns="http://www.w3.org/2000/svg"><path d="M15 5.647V.94l-1.591 1.65A7.572 7.572 0 007.728 0C3.455 0 0 3.577 0 8s3.454 8 7.728 8c2.181 0 4.136-.941 5.545-2.447l-1.272-1.365a5.744 5.744 0 01-4.273 1.93c-3.273 0-5.91-2.73-5.91-6.118 0-3.388 2.637-6.117 5.91-6.117 1.727 0 3.318.8 4.408 2.023l-1.681 1.74H15z" fill="#fff"/></svg><svg fill="none" viewBox="0 0 42 42" id="sprite--clock" xmlns="http://www.w3.org/2000/svg"><path fill-rule="evenodd" clip-rule="evenodd" d="M21 0c11.59 0 21 9.41 21 21s-9.41 21-21 21S0 32.59 0 21 9.41 0 21 0zm1 39v-2a1 1 0 00-2 0v2a1 1 0 002 0zm12.435-5.979l-1.414-1.414a.999.999 0 10-1.414 1.414l1.414 1.414a1 1 0 001.414-1.414zM8.979 34.435l1.414-1.414a.999.999 0 10-1.414-1.414l-1.414 1.414a1 1 0 001.414 1.414zM20 8.979V21c0 .265.105.52.293.707l8 8a1 1 0 001.414-1.414L22 20.586V8.979a1 1 0 00-2 0zM3 22h2a1 1 0 000-2H3a1 1 0 000 2zm36-2h-2a1 1 0 000 2h2a1 1 0 000-2zM7.565 8.979l1.414 1.414a.999.999 0 101.414-1.414L8.979 7.565a1 1 0 00-1.414 1.414zm25.456-1.414l-1.414 1.414a.999.999 0 101.414 1.414l1.414-1.414a1 1 0 00-1.414-1.414zM20 3v2a1 1 0 002 0V3a1 1 0 00-2 0z" fill="#fff"/></svg><svg fill="none" viewBox="0 0 12 13" id="sprite--phone" xmlns="http://www.w3.org/2000/svg"><path d="M10.188 5.412C10.2 3.791 8.82 2.304 7.108 2.1a2.013 2.013 0 01-.11-.017 1.6 1.6 0 00-.26-.028c-.352 0-.445.246-.47.393a.454.454 0 00.068.357c.116.158.32.186.485.208.048.007.093.013.131.022 1.537.343 2.055.883 2.308 2.407.006.038.01.084.012.132.011.183.034.562.442.562.034 0 .07-.003.108-.01.38-.057.368-.403.362-.57a.857.857 0 01.002-.143z" fill="#fff"/><path d="M6.639 1.504c.045.003.088.006.124.012 2.525.388 3.686 1.584 4.008 4.129.005.043.006.096.007.151.003.2.01.613.454.621h.013a.44.44 0 00.33-.124c.138-.145.128-.36.12-.533l-.003-.117c.032-2.602-2.22-4.962-4.82-5.05a.18.18 0 00-.031.002.218.218 0 01-.031.002 1.1 1.1 0 01-.092-.005C6.678.59 6.631.586 6.584.586c-.414 0-.493.295-.503.47-.023.406.37.434.558.448zm4.009 7.429a7.817 7.817 0 01-.161-.125 15.32 15.32 0 00-.853-.624 65.627 65.627 0 01-.176-.124c-.363-.255-.69-.379-.999-.379-.415 0-.778.23-1.077.683-.132.2-.293.298-.491.298a.976.976 0 01-.396-.1c-1.172-.531-2.01-1.346-2.488-2.423-.232-.52-.157-.86.25-1.136.232-.157.663-.45.632-1.01-.034-.635-1.437-2.547-2.028-2.765a1.151 1.151 0 00-.783-.002c-.679.228-1.166.63-1.41 1.16C.435 2.898.445 3.5.7 4.126c.737 1.81 1.774 3.387 3.08 4.689 1.28 1.274 2.852 2.318 4.673 3.102.165.071.337.11.463.138l.106.025c.015.004.03.006.046.006h.014c.857 0 1.886-.783 2.202-1.675.276-.781-.229-1.168-.635-1.478zM7.016 3.57c-.146.004-.451.012-.559.323-.05.145-.044.271.018.375.091.152.265.198.424.224.575.092.87.41.929 1 .027.275.212.467.45.467a.444.444 0 00.054-.003c.286-.034.424-.245.412-.625.005-.397-.203-.848-.557-1.207-.354-.36-.782-.563-1.17-.553z" fill="#fff"/></svg><svg fill="none" viewBox="0 0 18 18" id="sprite--search" xmlns="http://www.w3.org/2000/svg"><path d="M16.639 16.5l-2.778-2.784m2.093-5.058a7.158 7.158 0 11-14.316 0 7.158 7.158 0 0114.316 0z" stroke="#667884" stroke-width="1.6" stroke-linecap="round"/></svg><svg fill="none" viewBox="0 0 13 11" id="sprite--tg" xmlns="http://www.w3.org/2000/svg"><path d="M.709 5.68l2.666.906 6.33-3.87c.092-.056.186.069.106.141L5.02 7.268l-.178 2.47a.204.204 0 00.347.16l1.476-1.45 2.697 2.041a.5.5 0 00.79-.29L12.03 1.67a.626.626 0 00-.834-.719l-10.5 4.02a.377.377 0 00.014.71z" fill="#fff"/></svg><svg fill="none" viewBox="0 0 17 17" id="sprite--wa" xmlns="http://www.w3.org/2000/svg"><path fill-rule="evenodd" clip-rule="evenodd" d="M14.523 2.47A8.43 8.43 0 008.536 0C3.87 0 .073 3.779.07 8.423c0 1.485.39 2.934 1.13 4.212L0 17l4.487-1.171a8.488 8.488 0 004.045 1.025h.004c4.665 0 8.462-3.78 8.464-8.424a8.352 8.352 0 00-2.477-5.96zM8.536 15.432h-.003c-1.263 0-2.5-.338-3.581-.976l-.257-.152L2.032 15l.711-2.584-.167-.265A6.96 6.96 0 011.5 8.424c.002-3.86 3.158-7.001 7.038-7.001 1.88 0 3.646.73 4.974 2.053a6.943 6.943 0 012.059 4.954c-.002 3.86-3.158 7.001-7.035 7.001zm3.859-5.244c-.212-.105-1.252-.614-1.446-.684-.193-.07-.335-.106-.475.105-.141.21-.547.685-.67.825-.124.14-.247.158-.458.053-.212-.106-.893-.328-1.701-1.045-.629-.558-1.053-1.247-1.177-1.458-.123-.21 0-.314.093-.43.229-.282.458-.58.529-.72.07-.14.035-.263-.018-.368-.053-.106-.476-1.142-.652-1.563-.172-.41-.346-.355-.476-.361a8.496 8.496 0 00-.405-.008.779.779 0 00-.564.264c-.194.21-.74.72-.74 1.756s.757 2.036.863 2.177c.106.14 1.492 2.266 3.613 3.178.505.217.899.347 1.206.444.507.16.967.137 1.332.083.406-.06 1.251-.51 1.428-1 .176-.493.176-.914.123-1.002-.053-.088-.194-.14-.405-.246z" fill="#fff"/></svg></svg>