<svg width="17" height="17" fill="none" xmlns="http://www.w3.org/2000/svg"><path fill-rule="evenodd" clip-rule="evenodd" d="M14.523 2.47A8.43 8.43 0 008.536 0C3.87 0 .073 3.779.07 8.423c0 1.485.39 2.934 1.13 4.212L0 17l4.487-1.171a8.488 8.488 0 004.045 1.025h.004c4.665 0 8.462-3.78 8.464-8.424a8.352 8.352 0 00-2.477-5.96zM8.536 15.432h-.003c-1.263 0-2.5-.338-3.581-.976l-.257-.152L2.032 15l.711-2.584-.167-.265A6.96 6.96 0 011.5 8.424c.002-3.86 3.158-7.001 7.038-7.001 1.88 0 3.646.73 4.974 2.053a6.943 6.943 0 012.059 4.954c-.002 3.86-3.158 7.001-7.035 7.001zm3.859-5.244c-.212-.105-1.252-.614-1.446-.684-.193-.07-.335-.106-.475.105-.141.21-.547.685-.67.825-.124.14-.247.158-.458.053-.212-.106-.893-.328-1.701-1.045-.629-.558-1.053-1.247-1.177-1.458-.123-.21 0-.314.093-.43.229-.282.458-.58.529-.72.07-.14.035-.263-.018-.368-.053-.106-.476-1.142-.652-1.563-.172-.41-.346-.355-.476-.361a8.496 8.496 0 00-.405-.008.779.779 0 00-.564.264c-.194.21-.74.72-.74 1.756s.757 2.036.863 2.177c.106.14 1.492 2.266 3.613 3.178.505.217.899.347 1.206.444.507.16.967.137 1.332.083.406-.06 1.251-.51 1.428-1 .176-.493.176-.914.123-1.002-.053-.088-.194-.14-.405-.246z" fill="#fff"/></svg>