<svg width="221" height="38" viewBox="0 0 221 38" fill="none" xmlns="http://www.w3.org/2000/svg">
<path fill-rule="evenodd" clip-rule="evenodd" d="M16.8401 2.28418C26.1346 2.28418 33.6802 9.82979 33.6802 19.1243C33.6802 28.4188 26.1346 35.9644 16.8401 35.9644C7.54561 35.9644 0 28.4188 0 19.1243C0 9.82979 7.54561 2.28418 16.8401 2.28418Z" fill="#575A5F"/>
<path fill-rule="evenodd" clip-rule="evenodd" d="M55.3675 2.28418C64.662 2.28418 72.2076 9.82979 72.2076 19.1243C72.2076 28.4188 64.662 35.9644 55.3675 35.9644C46.073 35.9644 38.5273 28.4188 38.5273 19.1243C38.5273 9.82979 46.073 2.28418 55.3675 2.28418Z" fill="#9B9B9B"/>
<path fill-rule="evenodd" clip-rule="evenodd" d="M93.9143 2.28418C103.209 2.28418 110.754 9.82979 110.754 19.1243C110.754 28.4188 103.209 35.9644 93.9143 35.9644C84.6198 35.9644 77.0742 28.4188 77.0742 19.1243C77.0742 9.82979 84.6198 2.28418 93.9143 2.28418Z" fill="#F3F0E2"/>
<path fill-rule="evenodd" clip-rule="evenodd" d="M122.715 16.6233V0.590386H129.619C133.541 0.590386 135.503 2.16519 135.503 5.3148C135.503 8.46441 133.323 10.0867 128.963 10.0867H127.356V16.6233H122.715ZM127.356 8.59498H128.401C130.09 8.59498 130.937 7.47125 130.937 5.23171C130.937 3.12669 130.09 2.07814 128.401 2.07814H127.356V8.59103V8.59498ZM147.433 0.590386V2.2008H141.688V7.05579H146.519V8.6662H141.688V15.0129H148.418V16.6233H137.046V0.590386H147.433ZM149.874 16.6233V0.590386H156.759C158.552 0.590386 159.984 0.96628 161.052 1.72598C162.125 2.48173 162.663 3.49863 162.663 4.77272C162.663 6.7155 161.511 7.98564 159.208 8.57124C160.391 9.01045 161.155 9.49317 161.503 10.0155C161.852 10.5417 162.089 11.5586 162.212 13.0662C162.362 14.8665 162.659 16.0535 163.114 16.6312H158.069C157.748 15.8913 157.586 14.9615 157.586 13.8496L157.562 12.9L157.539 11.705C157.539 9.8572 156.795 8.93527 155.307 8.93527H154.512V16.6273H149.87L149.874 16.6233ZM154.516 7.60974H155.453C157.214 7.60974 158.097 6.68781 158.097 4.84394C158.097 3.00008 157.214 2.07814 155.453 2.07814H154.516V7.60578V7.60974ZM175.495 0.590386V2.2008H169.678V7.56226H174.632V9.17268H169.678V16.6233H165.041V0.590386H175.498H175.495ZM189.114 0.590386V11.3568C189.114 15.0485 187.076 16.8884 182.997 16.8884C178.917 16.8884 176.903 15.0446 176.903 11.3568V0.590386H181.544V11.4953C181.544 12.9039 181.746 13.8654 182.15 14.3838C182.553 14.9021 183.301 15.1554 184.389 15.1554C186.502 15.1554 187.555 13.8892 187.555 11.3529V0.586426H189.118L189.114 0.590386ZM206.52 0.590386V16.6233H202.025V5.47703L198.903 16.6233H196.311L193.106 5.66696V16.6233H191.543V0.590386H196.264L199.006 10.2766L201.744 0.590386H206.52ZM219.652 0.590386V2.2008H213.907V7.05579H218.738V8.6662H213.907V15.0129H220.638V16.6233H209.266V0.590386H219.648H219.652Z" fill="#575A5F"/>
<path fill-rule="evenodd" clip-rule="evenodd" d="M129.984 21.2886L134.443 37.3216H129.77L128.821 33.8356H123.997L122.976 37.3216H121.156L125.9 21.2886H129.984ZM124.456 32.2252H128.389L126.498 25.1425L124.456 32.2252ZM147.251 21.2886L142.598 37.3216H138.432L134.186 21.2886H138.883L142.052 33.4399L145.514 21.2886H147.255H147.251ZM158.841 21.2886V22.899H153.096V27.754H157.927V29.3645H153.096V35.7111H159.826V37.3216H148.454V21.2886H158.841ZM172.994 21.2886V37.3216H169.437L162.754 27.1843V37.3216H161.191V21.2886H164.135L171.431 32.2529V21.2886H172.994ZM187.721 21.2886V32.0551C187.721 35.7428 185.684 37.5867 181.604 37.5867C177.525 37.5867 175.511 35.7428 175.511 32.0551V21.2886H180.152V32.1936C180.152 33.6022 180.354 34.5637 180.757 35.082C181.161 35.6004 181.909 35.8536 182.997 35.8536C185.11 35.8536 186.162 34.5874 186.162 32.0511V21.2847H187.725L187.721 21.2886ZM200.605 21.2886V22.899H194.859V27.754H199.691V29.3645H194.859V35.7111H201.59V37.3216H190.218V21.2886H200.605Z" fill="#9B9B9B"/>
</svg>
