<svg width="221" height="38" viewBox="0 0 221 38" fill="none" xmlns="http://www.w3.org/2000/svg">
<path fill-rule="evenodd" clip-rule="evenodd" d="M16.8401 2.19751C26.1346 2.19751 33.6802 9.74312 33.6802 19.0376C33.6802 28.3321 26.1346 35.8778 16.8401 35.8778C7.54561 35.8778 0 28.3321 0 19.0376C0 9.74312 7.54561 2.19751 16.8401 2.19751Z" fill="#575A5F"/>
<path fill-rule="evenodd" clip-rule="evenodd" d="M55.3675 2.19751C64.662 2.19751 72.2076 9.74312 72.2076 19.0376C72.2076 28.3321 64.662 35.8778 55.3675 35.8778C46.073 35.8778 38.5273 28.3321 38.5273 19.0376C38.5273 9.74312 46.073 2.19751 55.3675 2.19751Z" fill="#9B9B9B"/>
<path fill-rule="evenodd" clip-rule="evenodd" d="M93.9143 2.19751C103.209 2.19751 110.754 9.74312 110.754 19.0376C110.754 28.3321 103.209 35.8778 93.9143 35.8778C84.6198 35.8778 77.0742 28.3321 77.0742 19.0376C77.0742 9.74312 84.6198 2.19751 93.9143 2.19751Z" fill="#F3F0E2"/>
<path fill-rule="evenodd" clip-rule="evenodd" d="M122.715 16.5369V0.503961H129.619C133.541 0.503961 135.503 2.07877 135.503 5.22838C135.503 8.37799 133.323 10.0003 128.963 10.0003H127.356V16.5369H122.715ZM127.356 8.50856H128.401C130.09 8.50856 130.937 7.38483 130.937 5.14528C130.937 3.04027 130.09 1.99171 128.401 1.99171H127.356V8.5046V8.50856ZM147.433 0.503961V2.11437H141.688V6.96936H146.519V8.57978H141.688V14.9265H148.418V16.5369H137.046V0.503961H147.433ZM149.874 16.5369V0.503961H156.759C158.552 0.503961 159.984 0.879854 161.052 1.63956C162.125 2.39531 162.663 3.4122 162.663 4.68629C162.663 6.62908 161.511 7.89921 159.208 8.48482C160.391 8.92402 161.155 9.40675 161.503 9.92905C161.852 10.4553 162.089 11.4722 162.212 12.9797C162.362 14.7801 162.659 15.9671 163.114 16.5448H158.069C157.748 15.8049 157.586 14.875 157.586 13.7632L157.562 12.8136L157.539 11.6186C157.539 9.77077 156.795 8.84884 155.307 8.84884H154.512V16.5409H149.87L149.874 16.5369ZM154.516 7.52331H155.453C157.214 7.52331 158.097 6.60138 158.097 4.75752C158.097 2.91365 157.214 1.99171 155.453 1.99171H154.516V7.51936V7.52331ZM175.495 0.503961V2.11437H169.678V7.47583H174.632V9.08625H169.678V16.5369H165.041V0.503961H175.498H175.495ZM189.114 0.503961V11.2704C189.114 14.9621 187.076 16.802 182.997 16.802C178.917 16.802 176.903 14.9581 176.903 11.2704V0.503961H181.544V11.4089C181.544 12.8175 181.746 13.779 182.15 14.2974C182.553 14.8157 183.301 15.0689 184.389 15.0689C186.502 15.0689 187.555 13.8028 187.555 11.2664V0.5H189.118L189.114 0.503961ZM206.52 0.503961V16.5369H202.025V5.3906L198.903 16.5369H196.311L193.106 5.58053V16.5369H191.543V0.503961H196.264L199.006 10.1902L201.744 0.503961H206.52ZM219.652 0.503961V2.11437H213.907V6.96936H218.738V8.57978H213.907V14.9265H220.638V16.5369H209.266V0.503961H219.648H219.652Z" fill="#575A5F"/>
<path fill-rule="evenodd" clip-rule="evenodd" d="M129.984 21.202L134.443 37.2349H129.77L128.821 33.749H123.997L122.976 37.2349H121.156L125.9 21.202H129.984ZM124.456 32.1385H128.389L126.498 25.0559L124.456 32.1385ZM147.251 21.202L142.598 37.2349H138.432L134.186 21.202H138.883L142.052 33.3533L145.514 21.202H147.255H147.251ZM158.841 21.202V22.8124H153.096V27.6674H157.927V29.2778H153.096V35.6245H159.826V37.2349H148.454V21.202H158.841ZM172.994 21.202V37.2349H169.437L162.754 27.0976V37.2349H161.191V21.202H164.135L171.431 32.1662V21.202H172.994ZM187.721 21.202V31.9684C187.721 35.6561 185.684 37.5 181.604 37.5C177.525 37.5 175.511 35.6561 175.511 31.9684V21.202H180.152V32.1069C180.152 33.5155 180.354 34.477 180.757 34.9953C181.161 35.5137 181.909 35.7669 182.997 35.7669C185.11 35.7669 186.162 34.5007 186.162 31.9644V21.198H187.725L187.721 21.202ZM200.605 21.202V22.8124H194.859V27.6674H199.691V29.2778H194.859V35.6245H201.59V37.2349H190.218V21.202H200.605Z" fill="#9B9B9B"/>
</svg>
