<svg width="55" height="12" viewBox="0 0 55 12" fill="none" xmlns="http://www.w3.org/2000/svg">
<g clip-path="url(#clip0_208_313)">
<path fill-rule="evenodd" clip-rule="evenodd" d="M6.6134 0.0327664C5.37692 -0.0970567 4.13045 0.158028 3.04532 0.762959C1.96019 1.36789 1.08967 2.29297 0.553405 3.41105C0.0171452 4.52912 -0.158526 5.78531 0.0505379 7.00694C0.259602 8.22857 0.843138 9.35567 1.72094 10.2333C2.59874 11.111 3.72771 11.6961 4.95268 11.9083C6.17764 12.1204 7.43847 11.9492 8.56184 11.4182C9.68523 10.8871 10.616 10.0223 11.2263 8.94255C11.8365 7.86282 12.0963 6.6212 11.9699 5.38835C11.8308 4.01796 11.2221 2.7372 10.2465 1.76173C9.27089 0.786262 7.98783 0.17567 6.6134 0.0327664ZM6.41839 9.17272C5.75338 9.26164 5.07712 9.14063 4.48467 8.82668C3.89222 8.51273 3.41336 8.02164 3.11538 7.42242C2.81741 6.82319 2.71531 6.14597 2.82342 5.48592C2.93154 4.82587 3.24443 4.21618 3.71814 3.74253C4.19185 3.26889 4.80255 2.9551 5.46441 2.84527C6.12628 2.73545 6.80603 2.8351 7.40814 3.13023C8.01025 3.42535 8.50444 3.90112 8.82126 4.49066C9.13809 5.08019 9.26161 5.75387 9.17448 6.41699C9.08304 7.11449 8.76346 7.76248 8.26522 8.26066C7.76698 8.75883 7.11787 9.07939 6.41839 9.17272ZM15.1887 0.270075C14.98 0.270573 14.774 0.317447 14.5857 0.407286C14.3975 0.497125 14.2317 0.627669 14.1004 0.789419C13.9691 0.951169 13.8757 1.14006 13.8269 1.34233C13.778 1.54461 13.7751 1.7552 13.8182 1.95876C13.9502 2.61824 14.5682 3.06884 15.2415 3.06884H19.1483L13.0684 11.0886C13.0234 11.1478 12.9959 11.2184 12.9889 11.2923C12.9818 11.3662 12.9956 11.4406 13.0287 11.5072C13.0617 11.5737 13.1127 11.6298 13.1759 11.6691C13.2391 11.7084 13.3121 11.7294 13.3866 11.7296H22.9235C23.5963 11.7296 24.2148 11.2792 24.3468 10.6196C24.3899 10.416 24.387 10.2055 24.3382 10.0032C24.2894 9.80097 24.196 9.61209 24.0648 9.45033C23.9336 9.28857 23.7679 9.15799 23.5797 9.06809C23.3915 8.9782 23.1855 8.93125 22.9768 8.93065H18.2166L24.2919 0.917095C24.3373 0.857314 24.3651 0.786104 24.3722 0.711455C24.3793 0.636807 24.3653 0.561672 24.3319 0.494481C24.2985 0.42729 24.247 0.3707 24.1832 0.331062C24.1193 0.291424 24.0457 0.270305 23.9704 0.270075H15.1887ZM53.2979 0.302358C52.9821 0.377193 52.7015 0.557192 52.5023 0.812594C52.3031 1.068 52.1973 1.3835 52.2025 1.70695V6.36681L44.6271 0.358089C44.5677 0.311086 44.4962 0.281754 44.4208 0.273466C44.3454 0.265179 44.2692 0.278273 44.2009 0.311242C44.1327 0.344211 44.0751 0.395716 44.035 0.459832C43.9948 0.523947 43.9735 0.598069 43.9738 0.67367V10.2953C43.9686 10.6187 44.0744 10.9342 44.2736 11.1896C44.4727 11.445 44.7534 11.625 45.0692 11.6999C45.2742 11.7448 45.4867 11.7433 45.6911 11.6955C45.8955 11.6477 46.0865 11.5547 46.25 11.4235C46.4136 11.2923 46.5454 11.1261 46.636 10.9373C46.7265 10.7485 46.7733 10.5419 46.773 10.3326V5.63246L54.3485 11.6413C54.4079 11.6883 54.4794 11.7176 54.5547 11.7259C54.6301 11.7341 54.7063 11.721 54.7745 11.6881C54.8427 11.6551 54.9002 11.6037 54.9404 11.5396C54.9806 11.4755 55.0018 11.4014 55.0016 11.3258V1.66912C55.0018 1.45992 54.955 1.25333 54.8644 1.0646C54.7739 0.875861 54.642 0.709787 54.4785 0.57862C54.315 0.447453 54.124 0.354538 53.9197 0.306724C53.7153 0.258911 53.5029 0.257419 53.2979 0.302358ZM33.5737 2.80095C36.7778 2.80095 39.172 4.48873 39.172 5.99844C39.172 7.50816 36.7778 9.19594 33.5737 9.19594C30.3695 9.19594 27.9753 7.50816 27.9753 5.99844C27.9753 4.48873 30.3695 2.80095 33.5737 2.80095ZM33.5737 0.00229574C28.9357 0.00229574 25.1761 2.68688 25.1761 5.99844C25.1761 9.31 28.9357 11.9946 33.5737 11.9946C38.2116 11.9946 41.9711 9.31 41.9711 5.99844C41.9711 2.68688 38.2115 0.00229574 33.5737 0.00229574Z" fill="white"/>
</g>
<defs>
<clipPath id="clip0_208_313">
<rect width="55" height="12" fill="white"/>
</clipPath>
</defs>
</svg>
