<svg width="66" height="13" viewBox="0 0 66 13" fill="none" xmlns="http://www.w3.org/2000/svg">
<path fill-rule="evenodd" clip-rule="evenodd" d="M62.032 8.07122C62.1873 8.20692 62.2641 8.2837 62.3605 8.36048C63.4051 9.24971 64.4497 10.1407 65.4746 11.03C65.5317 11.0871 65.63 11.1657 65.6871 11.2228C66.0746 11.6103 66.1121 12.1709 65.746 12.5566C65.3978 12.9441 64.8568 13.0013 64.4497 12.6727C63.714 12.0727 63.0176 11.4549 62.3034 10.855C61.2785 9.98359 60.2732 9.11401 59.2464 8.24442C59.1697 8.16764 59.0536 8.08907 58.8983 7.97301C58.8983 8.1855 58.8786 8.3212 58.8786 8.45691C58.8786 10.9139 58.8786 9.07651 58.8786 11.5317C58.8786 11.6478 58.8786 11.7638 58.8786 11.8799C58.8393 12.4209 58.434 12.8084 57.8912 12.7691C57.3698 12.7495 57.0216 12.362 57.002 11.821C57.002 11.7049 57.002 11.5888 57.002 11.4728C57.002 6.61774 57.002 6.05707 57.002 1.20203C57.002 1.04668 57.002 0.910976 57.002 0.757415C57.002 0.409223 57.0412 0.350299 57.3698 0.350299C57.8144 0.330657 58.259 0.330657 58.7036 0.330657C59.7678 0.330657 60.8696 0.36994 61.9338 0.311016C63.7319 0.234235 65.7442 1.68414 65.9371 3.79293C66.1121 5.68923 64.8157 7.48733 62.8801 7.8748C62.6319 7.93551 62.3605 8.01229 62.032 8.07122ZM58.7643 6.58203C58.8804 6.60167 58.9572 6.60167 59.0161 6.60167C59.9053 6.60167 60.8142 6.60167 61.7052 6.60167C61.957 6.60167 62.2284 6.58203 62.4784 6.48561C63.3105 6.23384 63.9676 5.73209 64.18 4.84107C64.5479 3.3126 63.4069 1.91984 61.8391 1.91984C60.9106 1.91984 60.0018 1.91984 59.0536 1.91984C58.9375 1.91984 58.8411 1.93948 58.7251 1.93948C58.7643 3.48581 58.7643 5.01428 58.7643 6.58203Z" fill="#667884"/>
<path fill-rule="evenodd" clip-rule="evenodd" d="M20.8754 7.19962C19.0951 7.19962 17.3738 7.19962 15.6132 7.19962C15.6132 7.35496 15.5936 7.49067 15.5936 7.62459C15.5936 8.97807 15.5936 10.3137 15.5936 11.6672C15.5936 11.8422 15.5936 12.0154 15.5543 12.1511C15.4186 12.5582 14.9936 12.8082 14.5865 12.7903C14.1419 12.751 13.774 12.4028 13.7169 11.9582C13.6973 11.8422 13.7169 11.7457 13.7169 11.6297C13.7169 6.81393 13.6973 6.23361 13.6973 1.43571C13.6973 1.24287 13.7169 1.04824 13.774 0.875035C13.9294 0.467919 14.3544 0.235791 14.799 0.294716C15.2043 0.351855 15.5525 0.700046 15.5918 1.1268C15.6114 1.26251 15.5918 1.37857 15.5918 1.51428C15.5918 3.9909 15.6114 2.2303 15.6114 4.70514C15.6114 4.86049 15.6311 4.99441 15.6311 5.13011C15.9596 5.20689 20.5254 5.20689 20.8736 5.13011C20.8736 5.01405 20.8932 4.89798 20.8932 4.76228C20.8932 3.67842 20.8932 2.57671 20.8932 1.49285C20.8932 1.37679 20.8932 1.28037 20.8932 1.1643C20.9325 0.680405 21.3003 0.312572 21.7824 0.294716C22.2663 0.275074 22.711 0.642907 22.7681 1.1268C22.7877 1.24287 22.7681 1.33929 22.7681 1.45535C22.7681 4.84084 22.7681 8.20669 22.7681 11.5922C22.7681 11.7082 22.7681 11.8047 22.7681 11.9207C22.711 12.4046 22.2842 12.7903 21.8003 12.7725C21.3164 12.7528 20.9289 12.3671 20.8718 11.8832C20.8718 11.7672 20.8718 11.6708 20.8718 11.5547C20.8718 10.2583 20.8718 8.9245 20.8718 7.62816C20.8754 7.51031 20.8754 7.37461 20.8754 7.19962Z" fill="#667884"/>
<path fill-rule="evenodd" clip-rule="evenodd" d="M1.77856 11.9208C1.27859 11.6297 0.242948 10.7816 0.0768877 10.1994C-0.0391761 9.85126 -0.0588177 9.46378 0.269732 9.15487C0.637565 8.80668 1.1411 8.67098 1.64286 8.99953C2.12675 9.34772 2.35888 9.79233 2.76421 10.1994C3.34453 10.7798 4.09805 11.0887 4.9105 11.1851C5.92829 11.2887 7.14428 11.194 7.9853 10.5476C8.44955 10.0245 8.58526 9.29058 8.02458 8.78704C7.75317 8.55491 7.40498 8.37993 7.05678 8.22637C6.20863 7.85853 5.3194 7.60676 4.42839 7.37464C3.47488 7.14786 2.3321 6.85324 1.46965 6.38899C0.792912 6.02115 0.405437 5.44083 0.289374 4.70695C-0.330228 0.24832 5.21941 -0.373068 8.31742 1.3786C8.70489 1.59109 9.07094 1.91964 9.40127 2.21069C9.65304 2.42318 9.84589 2.73208 9.94231 3.06242C10.0387 3.46954 9.84589 3.89451 9.34235 4.01057C8.91738 4.10699 8.5299 3.97129 8.22099 3.64274C8.16207 3.5856 8.10493 3.50703 8.06565 3.44989C6.99607 1.825 4.00341 1.60716 2.66957 2.83029C2.32138 3.29455 2.18568 3.91415 2.64993 4.49447C3.41417 5.21763 5.91936 5.64082 7.00143 5.90687C7.65853 6.08008 8.29777 6.29435 8.89774 6.64254C9.6709 7.04966 10.2316 7.64783 10.4262 8.5192C10.6583 9.58342 10.4262 10.5887 9.59412 11.3619C7.54247 13.201 4.10698 13.3332 1.77856 11.9208Z" fill="#667884"/>
<path fill-rule="evenodd" clip-rule="evenodd" d="M32.1496 0.354004C35.5673 0.354004 38.3385 3.12525 38.3385 6.54288C38.3385 6.55717 38.3385 6.57324 38.3385 6.58752C38.3367 6.8875 38.1207 7.13748 37.835 7.19284V7.20355H37.7154H37.1654H27.1303H26.7554H26.5804C26.2393 7.20355 25.9608 6.92678 25.959 6.58574C25.959 6.57145 25.959 6.55538 25.959 6.5411C25.9608 3.12525 28.732 0.354004 32.1496 0.354004ZM36.3154 5.13762C35.7298 3.39845 34.0852 2.14674 32.1496 2.14674C30.2141 2.14674 28.5695 3.39845 27.9839 5.13762H36.3154Z" fill="#667884"/>
<path fill-rule="evenodd" clip-rule="evenodd" d="M37.1133 10.2409C35.9848 11.7533 34.1813 12.7336 32.1493 12.7336C30.1173 12.7336 28.3138 11.7533 27.1853 10.2409C27.0746 10.0927 27.0371 9.92305 27.0746 9.74271C27.1121 9.56236 27.2139 9.4213 27.3728 9.33024L27.8514 9.05347C28.1228 8.89634 28.4656 8.96419 28.6567 9.21417C29.4602 10.2623 30.7244 10.9391 32.1493 10.9391C33.5724 10.9391 34.8384 10.2623 35.6419 9.21417C35.833 8.96419 36.174 8.89634 36.4472 9.05347L36.9258 9.33024C37.0847 9.42309 37.1865 9.56236 37.224 9.74271C37.2615 9.92305 37.224 10.0927 37.1133 10.2409Z" fill="#667884"/>
<path fill-rule="evenodd" clip-rule="evenodd" d="M47.677 0.353516C51.0946 0.353516 53.8659 3.12476 53.8659 6.54239C53.8659 6.55668 53.8659 6.57275 53.8659 6.58703C53.8641 6.88701 53.648 7.137 53.3623 7.19235V7.20306H53.2427H52.6927H42.6577H42.2827H42.1077C41.7667 7.20306 41.4881 6.9263 41.4863 6.58525C41.4863 6.57096 41.4863 6.55489 41.4863 6.54061C41.4881 3.12476 44.2594 0.353516 47.677 0.353516ZM51.8428 5.13713C51.2571 3.39796 49.6126 2.14625 47.677 2.14625C45.7414 2.14625 44.0969 3.39796 43.5112 5.13713H51.8428Z" fill="#667884"/>
<path fill-rule="evenodd" clip-rule="evenodd" d="M52.6406 10.2404C51.5121 11.7528 49.7087 12.7331 47.6766 12.7331C45.6446 12.7331 43.8412 11.7528 42.7127 10.2404C42.602 10.0922 42.5645 9.92257 42.602 9.74222C42.6395 9.56187 42.7413 9.42081 42.9002 9.32975L43.3787 9.05298C43.6501 8.89585 43.993 8.9637 44.184 9.21368C44.9875 10.2618 46.2517 10.9386 47.6766 10.9386C49.0998 10.9386 50.3658 10.2618 51.1693 9.21368C51.3603 8.9637 51.7014 8.89585 51.9746 9.05298L52.4531 9.32975C52.612 9.4226 52.7138 9.56187 52.7513 9.74222C52.7888 9.92257 52.7513 10.0922 52.6406 10.2404Z" fill="#667884"/>
</svg>
