<svg width="111" height="13" viewBox="0 0 111 13" fill="none" xmlns="http://www.w3.org/2000/svg">
<path d="M4.09222 12.5416L0.75 0.22067H2.94239L5.51033 9.68381L8.26248 0.219849L10.3062 0.22067L13.0679 9.73409L15.6474 0.222997L17.8398 0.219849L14.4961 12.5394L11.9549 12.5368L9.28517 3.33572L6.61291 12.5392L4.09222 12.5416Z" fill="white"/>
<path d="M19.3516 0.227051H21.4385V12.5336H19.3516V0.227051Z" fill="white"/>
<path d="M25.8992 10.6032H30.9799V12.5336H23.8555V0.227051H25.8992V10.6032Z" fill="white"/>
<path d="M37.4002 0.24124C39.1129 0.24124 40.5378 0.837423 41.6605 2.01555C42.7975 3.19368 43.3732 4.65574 43.3732 6.38744C43.3732 8.10499 42.7975 9.567 41.6605 10.7593C40.5378 11.9375 39.1129 12.5336 37.4002 12.5336H32.4922V0.227051H37.4002V0.24124ZM37.4002 10.6174C38.5803 10.6174 39.5447 10.2199 40.2643 9.42506C41.0128 8.63018 41.387 7.60818 41.387 6.40162C41.387 5.16674 41.0128 4.17312 40.2643 3.37824C39.5303 2.58331 38.566 2.18587 37.4002 2.18587H34.5504V10.6174H37.4002Z" fill="white"/>
<path d="M54.3852 9.01799C54.3852 10.0263 54.0257 10.8642 53.2916 11.5317C52.5575 12.1992 51.6938 12.54 50.6289 12.54H45.2891V0.227051H50.2402C51.2622 0.227051 52.1254 0.567916 52.8308 1.20699C53.5508 1.86025 53.8961 2.66977 53.8961 3.63547C53.8961 4.71482 53.4641 5.53854 52.6296 6.14923C53.7232 6.71731 54.3852 7.73981 54.3852 9.01799ZM47.3471 2.13012V5.36813H50.2543C51.1614 5.36813 51.8521 4.65802 51.8521 3.74912C51.8521 2.84018 51.1614 2.13012 50.2543 2.13012H47.3471ZM50.6431 10.637C51.593 10.637 52.3417 9.88428 52.3417 8.91858C52.3417 7.95283 51.593 7.20015 50.6431 7.20015H47.3471V10.6512H50.6431V10.637Z" fill="white"/>
<path d="M58.3717 10.6086H63.8987V12.54H56.3281V0.227051H63.8125V2.1585H58.3717V5.35389H63.3662V7.27115H58.3717V10.6086Z" fill="white"/>
<path d="M72.8524 12.54L70.2039 8.05225H67.7857V12.54H65.7422V0.227051H70.7363C71.8591 0.227051 72.809 0.610484 73.5719 1.39158C74.3489 2.14431 74.7522 3.08163 74.7522 4.18936C74.7522 5.75156 73.759 7.18592 72.2766 7.754L75.1117 12.54H72.8524ZM67.7857 2.13007V6.2486H70.7222C71.8158 6.2486 72.6795 5.3397 72.6795 4.18936C72.6795 3.0532 71.8016 2.13007 70.7222 2.13007H67.7857Z" fill="white"/>
<path d="M83.7753 12.54L81.1414 8.0499H78.7232V12.54H76.6797V0.220642H81.6738C82.7966 0.220642 83.7465 0.604302 84.5094 1.38581C85.2864 2.1389 85.6897 3.07668 85.6897 4.185C85.6897 5.74802 84.6965 7.18316 83.2141 7.75151L86.0492 12.54H83.7753ZM78.7232 2.12467V6.24534H81.6597C82.7533 6.24534 83.617 5.33594 83.617 4.185C83.617 3.0483 82.7391 2.12467 81.6597 2.12467H78.7232Z" fill="white"/>
<path d="M87.543 0.222046H89.587V12.54H87.543V0.222046Z" fill="white"/>
<path d="M94.0518 10.6086H99.5788V12.54H92.0078V0.227051H99.4921V2.1585H94.0518V5.35389H99.0459V7.27115H94.0518V10.6086Z" fill="white"/>
<path d="M101.004 9.73739L102.774 8.71539C103.278 10.1064 104.3 10.7878 105.868 10.7878C107.423 10.7878 108.186 10.1348 108.186 9.16963C108.186 8.65863 107.97 8.28957 107.567 8.03407C107.164 7.76438 106.415 7.46627 105.351 7.15401C104.156 6.79914 103.566 6.57201 102.731 6.03264C101.925 5.46488 101.522 4.65576 101.522 3.54862C101.522 2.45563 101.91 1.60399 102.702 0.965244C103.48 0.312258 104.429 0 105.538 0C107.538 0 109.078 1.022 109.884 2.71113L108.157 3.69056C107.639 2.555 106.761 1.97301 105.538 1.97301C104.343 1.97301 103.58 2.56919 103.58 3.50601C103.58 4.4145 104.184 4.84032 106.099 5.42226C106.574 5.57844 106.919 5.692 107.135 5.77713C107.365 5.84813 107.667 5.97588 108.056 6.13201C108.459 6.28814 108.776 6.47269 108.963 6.62882C109.625 7.13982 110.33 7.97727 110.244 9.15544C110.244 10.2626 109.841 11.1568 109.021 11.8098C108.214 12.4628 107.15 12.775 105.826 12.775C103.407 12.7608 101.651 11.6253 101.004 9.73739Z" fill="white"/>
</svg>
